<svg width="539" height="982" viewBox="0 0 539 982" fill="none" xmlns="http://www.w3.org/2000/svg">
<g opacity="0.5">
<path fill-rule="evenodd" clip-rule="evenodd" d="M210.996 277.164C205.701 274.185 198.994 276.063 196.015 281.357L158.658 347.751C155.679 353.046 157.557 359.753 162.851 362.732L367.183 477.699L154.923 537.106C149.073 538.743 145.657 544.813 147.295 550.664L167.827 624.026C169.465 629.877 175.535 633.292 181.385 631.655L388.238 573.761L277.165 771.172C274.186 776.467 276.063 783.174 281.357 786.153L347.751 823.509C353.046 826.488 359.753 824.611 362.732 819.317L485.723 600.723L551.367 835.269C553.005 841.119 559.075 844.535 564.925 842.897L638.288 822.365C644.138 820.727 647.553 814.657 645.916 808.807L588.022 601.954L771.172 705.003C776.467 707.982 783.174 706.105 786.153 700.81L823.51 634.416C826.489 629.122 824.611 622.415 819.317 619.436L621.906 508.363L853.555 443.529C859.406 441.892 862.821 435.822 861.184 429.971L840.651 356.609C839.014 350.758 832.944 347.343 827.093 348.98L590.036 415.327L705.003 210.996C707.982 205.701 706.105 198.994 700.811 196.015L634.417 158.658C629.122 155.679 622.415 157.556 619.436 162.851L516.387 346.001L457.79 136.637C456.153 130.786 450.083 127.371 444.233 129.008L370.87 149.541C365.02 151.178 361.604 157.248 363.242 163.099L429.589 400.156L210.996 277.164Z" fill="#343434"/>
</g>
</svg>
