<svg width="276" height="33" viewBox="0 0 276 33" fill="none" xmlns="http://www.w3.org/2000/svg">
<path d="M0.584159 0.397705H7.90443L12.086 20.6812L16.5184 0.397705H23.5864L24.2143 32.5497H19.197L18.653 10.7177L14.3037 32.5497H10.0389L5.56277 10.5987L5.06104 32.5497H0L0.584159 0.397705Z" fill="white"/>
<path d="M34.0835 0.397461H41.737L48.2595 32.5494H41.9033L40.6497 25.4842H35.2969L34.0003 32.5494H27.5179L34.0835 0.397461ZM39.9795 21.4348L37.9303 8.49414L35.9234 21.4348H39.9795Z" fill="white"/>
<path d="M53.1524 30.5451C51.5889 28.9159 50.7386 26.3952 50.6014 22.9831L56.5398 22.0307C56.4883 23.5767 56.7951 25.1147 57.4386 26.5358C57.6526 26.9778 57.9983 27.3506 58.4331 27.608C58.8679 27.8654 59.3726 27.9963 59.8849 27.9843C60.2192 28.0121 60.5554 27.9594 60.8625 27.8311C61.1696 27.7028 61.4376 27.503 61.6417 27.2502C62.0251 26.6908 62.2153 26.0318 62.1857 25.365C62.2233 24.2265 61.911 23.1022 61.2869 22.1293C60.4915 21.0384 59.5414 20.0567 58.4636 19.212L54.9515 16.3138C53.6617 15.3209 52.5771 14.1096 51.7526 12.7414C50.9791 11.3343 50.5976 9.76279 50.6445 8.17631C50.6445 5.55611 51.4599 3.53778 53.0908 2.12132C54.7216 0.704866 56.9722 -0.00109589 59.8426 0.00343968C62.9099 0.00343968 65.0427 0.842521 66.2411 2.52068C67.5204 4.44329 68.2284 6.65831 68.2904 8.93148L62.3111 9.76489C62.3288 8.49123 62.1239 7.22359 61.7048 6.01352C61.5447 5.626 61.2562 5.29839 60.8828 5.08008C60.5094 4.86177 60.0714 4.76459 59.6348 4.80321C59.2935 4.78982 58.9541 4.85747 58.6473 5.00003C58.3406 5.14259 58.0761 5.35555 57.878 5.61961C57.4541 6.17943 57.2337 6.85503 57.2501 7.54428C57.2171 8.48581 57.4712 9.41636 57.9819 10.2241C58.6329 11.1237 59.414 11.9319 60.3021 12.625L63.7318 15.4824C65.2333 16.7019 66.5183 18.1426 67.5378 19.7495C68.4868 21.3533 68.9634 23.1702 68.9175 25.0092C68.9438 26.4458 68.5687 27.8634 67.8302 29.1177C67.1078 30.3196 66.0424 31.3032 64.7567 31.9554C63.3477 32.6631 61.7719 33.0183 60.1781 32.9875C57.0554 32.9866 54.7135 32.1724 53.1524 30.5451Z" fill="white"/>
<path d="M75.7347 5.24009H70.5073V0.397461H87.8199V5.24009H82.6765V32.5494H75.7339V5.24009H75.7347Z" fill="white"/>
<path d="M90.8727 0.397461H105.638V4.92237H97.7306V13.4565H103.837V18.0236H97.7306V28.1062H105.715V32.5515H90.8727V0.397461Z" fill="white"/>
<path d="M109.228 0.397461H118.01C121.662 0.397461 124.408 1.03244 126.248 2.3024C128.088 3.57236 129.008 5.76871 129.008 8.89145C129.078 10.621 128.764 12.3451 128.088 13.9525C127.427 15.2801 126.262 16.3219 124.826 16.8698L129.512 32.5494H122.445L118.599 17.9814H116.09V32.5494H109.228V0.397461ZM118.137 14.0913C119.755 14.0913 120.891 13.7141 121.546 12.9599C122.201 12.2056 122.529 11.0214 122.529 9.40715C122.629 8.18429 122.322 6.96245 121.651 5.9143C121.065 5.17365 120.006 4.80309 118.473 4.80264H116.089V14.0913H118.138H118.137Z" fill="white"/>
<path d="M135.202 30.5451C133.64 28.9177 132.789 26.3971 132.651 22.9831L138.59 22.0307C138.538 23.5768 138.845 25.1147 139.489 26.5359C139.702 26.9779 140.048 27.3507 140.483 27.6081C140.918 27.8656 141.423 27.9964 141.935 27.9843C142.269 28.0121 142.605 27.9594 142.912 27.8311C143.219 27.7028 143.487 27.503 143.692 27.2502C144.075 26.6908 144.265 26.0318 144.236 25.365C144.273 24.2265 143.961 23.1022 143.337 22.1293C142.541 21.0384 141.591 20.0568 140.513 19.212L137.001 16.3138C135.712 15.3209 134.627 14.1096 133.802 12.7414C133.029 11.3343 132.647 9.76281 132.694 8.17631C132.694 5.55611 133.51 3.53778 135.141 2.12133C136.772 0.704866 139.021 -0.00109589 141.89 0.00343968C144.957 0.00343968 147.09 0.842521 148.288 2.52068C149.567 4.44329 150.275 6.65832 150.337 8.93149L144.358 9.7649C144.376 8.49122 144.171 7.22357 143.752 6.01353C143.592 5.62601 143.303 5.29839 142.93 5.08008C142.556 4.86177 142.118 4.7646 141.682 4.80321C141.341 4.78989 141.001 4.85756 140.694 5.00012C140.388 5.14267 140.123 5.35559 139.925 5.61961C139.501 6.17958 139.281 6.85513 139.298 7.54428C139.265 8.48589 139.519 9.41648 140.03 10.2241C140.682 11.1237 141.463 11.9319 142.351 12.625L145.781 15.4824C147.282 16.702 148.567 18.1427 149.587 19.7495C150.536 21.3534 151.012 23.1702 150.967 25.0092C150.993 26.4458 150.618 27.8634 149.879 29.1177C149.157 30.3196 148.092 31.3032 146.806 31.9554C145.396 32.6628 143.82 33.0175 142.226 32.9861C139.103 32.9861 136.761 32.1724 135.202 30.5451Z" fill="white"/>
<path d="M154.899 9.56634C155.284 9.59396 155.67 9.51954 156.013 9.35138C156.356 9.18322 156.644 8.9279 156.843 8.61387C157.247 7.74 157.426 6.78774 157.366 5.83538H154.606V0.397461H160.376L160.334 4.68358C160.251 7.0389 159.854 8.75879 159.143 9.84324C158.432 10.9277 157.198 11.4833 155.442 11.5101L154.899 9.56634Z" fill="white"/>
<path d="M178.064 31.7752C176.653 30.9807 175.586 29.7356 175.053 28.2627C174.41 26.3662 174.114 24.3794 174.175 22.388V0.397461H180.949V23.301C180.896 24.5296 181.095 25.7564 181.535 26.9129C181.785 27.3122 182.14 27.6429 182.565 27.8726C182.99 28.1023 183.471 28.2231 183.961 28.2231C184.45 28.2231 184.931 28.1023 185.356 27.8726C185.781 27.6429 186.136 27.3122 186.386 26.9129C186.826 25.7563 187.025 24.5296 186.972 23.301V0.397461H193.788V22.388C193.849 24.3794 193.552 26.3662 192.909 28.2627C192.373 29.7399 191.298 30.9861 189.877 31.7752C188.052 32.6677 186.01 33.0853 183.96 32.9855C181.452 32.986 179.486 32.5826 178.064 31.7752Z" fill="white"/>
<path d="M198.596 0.397461H203.405L210.931 17.1085V0.397461H216.66V32.5494H212.018L204.492 14.7668V32.5494H198.596V0.397461Z" fill="white"/>
<path d="M221.846 0.397461H228.704V32.5494H221.846V0.397461Z" fill="white"/>
<path d="M235.646 30.3069C234.113 28.5208 233.347 25.8943 233.346 22.4273V10.4398C233.346 6.97321 234.113 4.36662 235.646 2.61997C237.18 0.873324 239.745 0 243.341 0C246.909 0 249.467 0.8799 251.015 2.6397C252.563 4.3995 253.336 6.99952 253.335 10.4398V22.4667C253.335 25.907 252.562 28.5201 251.015 30.3062C249.468 32.0923 246.91 32.9854 243.341 32.9854C239.747 32.9859 237.182 32.093 235.646 30.3069ZM245.705 27.1706C246.157 26.1899 246.364 25.1237 246.312 24.0546V8.85185C246.368 7.79533 246.16 6.74119 245.705 5.77537C245.424 5.43532 245.066 5.16036 244.656 4.97127C244.247 4.78218 243.798 4.68392 243.343 4.68392C242.887 4.68392 242.438 4.78218 242.029 4.97127C241.619 5.16036 241.261 5.43532 240.98 5.77537C240.525 6.74108 240.317 7.7953 240.373 8.85185V24.0546C240.318 25.1283 240.518 26.2002 240.959 27.1903C241.349 27.9314 242.143 28.302 243.342 28.302C243.81 28.3543 244.283 28.2749 244.703 28.0738C245.123 27.8726 245.471 27.5584 245.705 27.1706H245.705Z" fill="white"/>
<path d="M257.936 0.397461H262.746L270.272 17.1085V0.397461H276V32.5494H271.359L263.833 14.7668V32.5494H257.936V0.397461Z" fill="white"/>
</svg>

