<svg width="2499" height="96" viewBox="0 0 2499 96" fill="none" xmlns="http://www.w3.org/2000/svg">
<path fill-rule="evenodd" clip-rule="evenodd" d="M3.64466 60.8701L13.5147 51H0V45H15L3.8873 33.8873L8.12994 29.6447L19 40.5147V26H25V39.5147L34.7574 29.7574L39 34L28 45H44V51H29.4853L39.2426 60.7574L35 65L25 55V70H19V54L7.8873 65.1127L3.64466 60.8701Z" fill="url(#paint0_linear_1068_6)"/>
<path d="M69.68 78V19.6H81.68V78H69.68ZM91.8394 37.52H103.519V42.24H103.679C106.639 38.48 110.959 36.56 116.319 36.56C126.399 36.56 131.999 42.24 131.999 52.64V78H119.999V54.32C119.999 49.12 117.519 46.16 112.719 46.16C107.599 46.16 103.839 49.52 103.839 56.24V78H91.8394V37.52ZM157.869 78.96C146.989 78.96 138.269 71.52 138.269 57.76C138.269 44 146.989 36.56 157.869 36.56C163.229 36.56 168.109 38.96 170.829 42.08V19.6H182.829V78H170.829V73.2C168.349 76.56 163.229 78.96 157.869 78.96ZM150.589 57.76C150.589 64.96 154.509 70.16 160.509 70.16C166.589 70.16 170.909 65.2 170.909 58.8V56.8C170.909 50.32 166.589 45.36 160.589 45.36C154.429 45.36 150.589 50.56 150.589 57.76ZM231.521 78H219.841V73.2H219.681C216.801 77.04 212.401 78.96 207.041 78.96C196.961 78.96 191.361 73.28 191.361 62.88V37.52H203.361V61.2C203.361 66.4 205.841 69.36 210.641 69.36C215.761 69.36 219.521 65.92 219.521 59.28V37.52H231.521V78ZM245.551 64.4C247.871 68 251.711 70.64 258.111 70.64C262.991 70.64 266.751 69.12 266.751 66.24C266.751 63.76 263.951 62.88 260.751 62.56L251.151 61.68C245.871 61.2 238.591 58.32 238.671 49.76C238.831 41.28 246.591 36.56 257.391 36.56C264.671 36.56 271.951 38.56 276.511 44.4L269.711 50.08C266.271 46.24 261.951 44.88 257.311 44.88C252.591 44.88 249.231 46.24 249.231 48.72C249.231 51.12 251.711 52 254.591 52.24L262.991 53.04C268.671 53.6 277.231 55.76 277.231 65.28C277.231 74.24 269.071 78.96 257.871 78.96C247.391 78.96 241.071 75.28 237.071 68.32L245.551 64.4ZM279.8 37.52H287.08L289.88 25.68H297.64V37.52H308.28V46.32H297.64V63.28C297.64 68.24 298.92 69.84 303.16 69.84C304.76 69.84 306.52 69.6 308.52 69.2V77.68C305.4 78.4 302.76 78.8 298.84 78.8C290.04 78.8 285.64 74.96 285.64 67.12V46.32H279.8V37.52ZM343.368 47.76C342.488 47.52 341.208 47.28 340.088 47.28C331.928 47.28 326.808 52 326.808 63.52V78H314.808V37.52H326.568V45.2H326.728C327.848 42.32 330.168 40 332.808 38.64C334.888 37.52 337.208 36.96 339.448 36.96C341.128 36.96 342.328 37.12 343.368 37.44V47.76ZM377.349 37.52H389.829L372.869 82.16C369.429 91.12 363.829 94.8 354.709 94.8C351.749 94.8 348.149 94.24 346.149 93.44V84.4C348.949 85.2 351.909 85.52 353.909 85.52C356.709 85.52 357.829 85.12 358.949 84.16C360.149 83.2 360.469 82.08 360.469 80.48C360.469 78.8 359.909 76.8 358.469 73.2L344.469 37.52H357.349L367.509 68.32H367.669L377.349 37.52Z" fill="white"/>
<path d="M417.808 26.244L418.32 23.62H435.28L434.768 26.244L429.264 26.884L425.552 46.66C425.04 49.3907 424.549 52.1427 424.08 54.916C423.611 57.6893 423.141 60.4627 422.672 63.236L428.496 63.94L427.984 66.5H411.024L411.536 63.94L416.976 63.3L420.752 43.46C421.776 37.956 422.736 32.452 423.632 26.948L417.808 26.244ZM473.416 67.332C472.392 67.332 471.581 67.076 470.984 66.564C470.429 66.052 470.152 65.3907 470.152 64.58C470.152 63.8547 470.237 63.1507 470.408 62.468C470.621 61.7427 470.877 60.7187 471.176 59.396L473.928 48.132C474.184 47.0227 474.418 45.9773 474.632 44.996C474.845 44.0147 474.952 43.204 474.952 42.564C474.952 41.4547 474.76 40.6867 474.376 40.26C473.992 39.8333 473.437 39.62 472.712 39.62C470.621 39.62 467.314 41.4973 462.792 45.252L461.128 53.06C460.616 55.2787 460.146 57.5187 459.72 59.78C459.293 61.9987 458.866 64.2387 458.44 66.5L454.28 67.012L453.64 66.5L458.056 45.636C458.141 45.0813 458.248 44.5267 458.376 43.972C458.504 43.4173 458.568 42.884 458.568 42.372C458.568 41.348 458.376 40.644 457.992 40.26C457.608 39.8333 457.053 39.62 456.328 39.62C455.176 39.62 453.704 40.0893 451.912 41.028C450.162 41.9667 448.114 43.396 445.768 45.316L444.04 53.06C443.57 55.2787 443.122 57.5187 442.696 59.78C442.312 61.9987 441.906 64.2387 441.48 66.5L437.192 67.012L436.552 66.5L441.992 40.836L435.656 40.452L435.911 38.596L446.792 35.332L447.624 35.972L446.28 42.564C448.37 40.5587 450.632 38.852 453.064 37.444C455.496 36.036 457.693 35.332 459.656 35.332C462.344 35.332 463.688 36.804 463.688 39.748C463.688 40.1747 463.645 40.6227 463.56 41.092C463.517 41.5187 463.453 41.9667 463.368 42.436C465.373 40.4733 467.506 38.8093 469.768 37.444C472.072 36.036 474.184 35.332 476.104 35.332C478.792 35.332 480.136 36.804 480.136 39.748C480.136 40.772 480.008 41.8173 479.752 42.884C479.538 43.908 479.304 44.9533 479.048 46.02L476.168 57.86C475.954 58.756 475.762 59.524 475.592 60.164C475.421 60.7613 475.336 61.2307 475.336 61.572C475.336 61.9987 475.464 62.34 475.72 62.596C475.976 62.8093 476.274 62.916 476.616 62.916C478.237 62.916 480.328 61.38 482.888 58.308L484.424 59.524C483.528 60.804 482.504 62.0413 481.352 63.236C480.242 64.4307 479.026 65.412 477.704 66.18C476.381 66.948 474.952 67.332 473.416 67.332ZM525.791 67.332C524.767 67.332 523.956 67.076 523.359 66.564C522.804 66.052 522.527 65.3907 522.527 64.58C522.527 63.8547 522.612 63.1507 522.783 62.468C522.996 61.7427 523.252 60.7187 523.551 59.396L526.303 48.132C526.559 47.0227 526.793 45.9773 527.007 44.996C527.22 44.0147 527.327 43.204 527.327 42.564C527.327 41.4547 527.135 40.6867 526.751 40.26C526.367 39.8333 525.812 39.62 525.087 39.62C522.996 39.62 519.689 41.4973 515.167 45.252L513.503 53.06C512.991 55.2787 512.521 57.5187 512.095 59.78C511.668 61.9987 511.241 64.2387 510.815 66.5L506.655 67.012L506.015 66.5L510.431 45.636C510.516 45.0813 510.623 44.5267 510.751 43.972C510.879 43.4173 510.943 42.884 510.943 42.372C510.943 41.348 510.751 40.644 510.367 40.26C509.983 39.8333 509.428 39.62 508.703 39.62C507.551 39.62 506.079 40.0893 504.287 41.028C502.537 41.9667 500.489 43.396 498.143 45.316L496.415 53.06C495.945 55.2787 495.497 57.5187 495.071 59.78C494.687 61.9987 494.281 64.2387 493.855 66.5L489.567 67.012L488.927 66.5L494.367 40.836L488.031 40.452L488.286 38.596L499.167 35.332L499.999 35.972L498.655 42.564C500.745 40.5587 503.007 38.852 505.439 37.444C507.871 36.036 510.068 35.332 512.031 35.332C514.719 35.332 516.062 36.804 516.062 39.748C516.062 40.1747 516.02 40.6227 515.935 41.092C515.892 41.5187 515.828 41.9667 515.743 42.436C517.748 40.4733 519.881 38.8093 522.143 37.444C524.447 36.036 526.559 35.332 528.479 35.332C531.167 35.332 532.511 36.804 532.511 39.748C532.511 40.772 532.383 41.8173 532.127 42.884C531.913 43.908 531.679 44.9533 531.423 46.02L528.543 57.86C528.329 58.756 528.137 59.524 527.967 60.164C527.796 60.7613 527.711 61.2307 527.711 61.572C527.711 61.9987 527.839 62.34 528.095 62.596C528.351 62.8093 528.649 62.916 528.991 62.916C530.612 62.916 532.703 61.38 535.263 58.308L536.799 59.524C535.903 60.804 534.879 62.0413 533.727 63.236C532.617 64.4307 531.401 65.412 530.079 66.18C528.756 66.948 527.327 67.332 525.791 67.332ZM555.19 38.084C554.208 38.084 553.12 38.468 551.926 39.236C550.774 40.004 549.643 41.0707 548.534 42.436C547.424 43.8013 546.486 45.38 545.718 47.172C544.992 48.9213 544.544 50.7987 544.374 52.804C547.915 51.78 550.731 50.6493 552.822 49.412C554.955 48.132 556.47 46.852 557.366 45.572C558.304 44.2493 558.774 43.012 558.774 41.86C558.774 40.6653 558.432 39.748 557.75 39.108C557.11 38.4253 556.256 38.084 555.19 38.084ZM549.558 67.332C546.742 67.332 544.416 66.372 542.582 64.452C540.79 62.532 539.894 59.524 539.894 55.428C539.894 52.868 540.342 50.3933 541.238 48.004C542.134 45.572 543.35 43.4173 544.885 41.54C546.422 39.62 548.192 38.1053 550.198 36.996C552.246 35.8867 554.379 35.332 556.598 35.332C558.688 35.332 560.267 35.844 561.334 36.868C562.443 37.892 562.998 39.3427 562.998 41.22C562.998 42.5853 562.464 44.1 561.398 45.764C560.331 47.3853 558.432 49.028 555.702 50.692C553.014 52.356 549.238 53.892 544.374 55.3C544.502 58.0307 545.142 59.9933 546.294 61.188C547.446 62.34 549.003 62.916 550.966 62.916C552.971 62.916 554.699 62.404 556.15 61.38C557.6 60.356 558.752 59.3107 559.606 58.244L561.078 59.396C559.755 61.572 558.091 63.4493 556.086 65.028C554.08 66.564 551.904 67.332 549.558 67.332ZM567.364 66.5L572.804 40.836L566.468 40.452L566.724 38.596L577.284 35.332L578.116 35.972L576.708 44.548C577.647 42.9267 578.628 41.4333 579.652 40.068C580.719 38.66 581.828 37.5293 582.98 36.676C584.132 35.78 585.263 35.332 586.372 35.332C587.268 35.332 588.1 35.4813 588.868 35.78C589.636 36.036 590.233 36.5267 590.66 37.252C590.617 38.3187 590.297 39.1933 589.7 39.876C589.145 40.516 588.335 40.836 587.268 40.836C586.713 40.836 586.095 40.6867 585.412 40.388C584.772 40.0467 584.132 39.6413 583.492 39.172C581.956 40.452 580.548 41.9667 579.268 43.716C577.988 45.4653 576.772 47.4707 575.62 49.732L574.852 53.06C574.383 55.2787 573.935 57.5187 573.508 59.78C573.124 61.9987 572.719 64.2387 572.292 66.5L568.004 67.012L567.364 66.5ZM607.556 58.244C607.556 60.8893 606.553 63.0653 604.548 64.772C602.585 66.4787 599.983 67.332 596.74 67.332C594.265 67.332 592.367 66.756 591.044 65.604C589.764 64.452 589.017 62.916 588.804 60.996C588.975 60.4413 589.273 60.0147 589.7 59.716C590.169 59.3747 590.66 59.204 591.172 59.204C592.111 59.204 592.793 59.46 593.22 59.972C593.689 60.4413 594.031 61.124 594.244 62.02L594.948 64.772C595.076 64.8147 595.204 64.836 595.332 64.836C595.503 64.836 595.673 64.836 595.844 64.836C598.063 64.836 599.791 64.3453 601.028 63.364C602.265 62.3827 602.884 61.06 602.884 59.396C602.884 58.372 602.649 57.3907 602.18 56.452C601.711 55.5133 600.559 54.3827 598.724 53.06C597.145 51.8227 595.801 50.564 594.692 49.284C593.625 47.9613 593.092 46.2973 593.092 44.292C593.092 42.628 593.519 41.1133 594.372 39.748C595.225 38.3827 596.399 37.316 597.892 36.548C599.428 35.7373 601.22 35.332 603.268 35.332C605.145 35.332 606.767 35.7587 608.132 36.612C609.497 37.4227 610.415 38.8733 610.884 40.964C610.5 42.1587 609.689 42.756 608.452 42.756C606.959 42.756 605.871 41.7533 605.188 39.748L604.612 37.892C604.484 37.8493 604.335 37.828 604.164 37.828C604.036 37.828 603.887 37.828 603.716 37.828C601.497 37.828 599.919 38.34 598.98 39.364C598.084 40.388 597.636 41.6253 597.636 43.076C597.636 44.3987 597.956 45.508 598.596 46.404C599.279 47.2573 600.537 48.3667 602.372 49.732C604.292 51.1827 605.636 52.5053 606.404 53.7C607.172 54.852 607.556 56.3667 607.556 58.244ZM615.323 64.068C615.323 63.5987 615.365 63.044 615.451 62.404C615.536 61.7213 615.728 60.7187 616.027 59.396L619.867 40.836L613.531 40.452L613.786 38.596L624.667 35.332L625.499 35.972L620.955 57.86C620.784 58.6707 620.635 59.396 620.507 60.036C620.421 60.676 620.379 61.1667 620.379 61.508C620.379 61.9347 620.528 62.276 620.827 62.532C621.125 62.788 621.445 62.916 621.787 62.916C623.323 62.916 625.371 61.38 627.931 58.308L629.531 59.524C628.592 60.804 627.568 62.0413 626.458 63.236C625.392 64.4307 624.219 65.412 622.939 66.18C621.701 66.948 620.315 67.332 618.779 67.332C617.925 67.332 617.136 67.0547 616.411 66.5C615.685 65.9453 615.323 65.1347 615.323 64.068ZM624.731 26.628C623.707 26.628 622.875 26.308 622.235 25.668C621.595 24.9853 621.275 24.0467 621.275 22.852C621.275 21.7853 621.659 20.868 622.427 20.1C623.195 19.2893 624.069 18.884 625.051 18.884C626.075 18.884 626.907 19.2253 627.547 19.908C628.187 20.548 628.507 21.444 628.507 22.596C628.507 23.62 628.123 24.5587 627.355 25.412C626.587 26.2227 625.712 26.628 624.731 26.628ZM639.83 66.628C639.702 61.5933 639.51 57.1987 639.254 53.444C638.998 49.6893 638.635 46.1267 638.166 42.756C638.038 41.476 637.824 40.6653 637.526 40.324C637.227 39.94 636.843 39.748 636.374 39.748C635.819 39.748 635.222 40.0467 634.582 40.644C633.984 41.1987 633.131 42.308 632.022 43.972L630.549 42.948C632.811 37.8707 635.499 35.332 638.614 35.332C639.936 35.332 640.896 35.7373 641.494 36.548C642.134 37.3587 642.603 38.6387 642.902 40.388C643.371 43.2467 643.691 46.532 643.862 50.244C644.032 53.956 644.139 57.668 644.182 61.38C646.443 58.7347 648.427 56.132 650.134 53.572C651.84 50.9693 653.483 48.196 655.062 45.252C655.104 45.1667 655.126 45.1027 655.126 45.06C655.168 44.9747 655.211 44.9107 655.254 44.868L654.806 42.372C654.763 41.9453 654.699 41.4973 654.614 41.028C654.571 40.5587 654.55 40.1747 654.55 39.876C654.55 38.2547 654.848 37.1027 655.446 36.42C656.086 35.6947 656.939 35.332 658.006 35.332C658.603 35.332 659.115 35.4173 659.542 35.588C659.968 35.7587 660.267 35.9507 660.438 36.164C660.651 36.4627 660.757 37.06 660.757 37.956C660.757 38.3827 660.694 38.916 660.566 39.556C660.48 40.196 660.203 41.0707 659.734 42.18C659.307 43.2467 658.582 44.74 657.558 46.66C656.576 48.5373 655.275 50.628 653.654 52.932C652.075 55.1933 650.304 57.5187 648.342 59.908C646.379 62.2547 644.31 64.5373 642.134 66.756L640.278 66.948L639.83 66.628ZM677.752 38.084C676.771 38.084 675.683 38.468 674.488 39.236C673.336 40.004 672.205 41.0707 671.096 42.436C669.987 43.8013 669.048 45.38 668.28 47.172C667.555 48.9213 667.107 50.7987 666.936 52.804C670.477 51.78 673.293 50.6493 675.384 49.412C677.517 48.132 679.032 46.852 679.928 45.572C680.867 44.2493 681.336 43.012 681.336 41.86C681.336 40.6653 680.995 39.748 680.312 39.108C679.672 38.4253 678.819 38.084 677.752 38.084ZM672.12 67.332C669.304 67.332 666.979 66.372 665.144 64.452C663.352 62.532 662.456 59.524 662.456 55.428C662.456 52.868 662.904 50.3933 663.8 48.004C664.696 45.572 665.912 43.4173 667.448 41.54C668.984 39.62 670.755 38.1053 672.76 36.996C674.808 35.8867 676.941 35.332 679.16 35.332C681.251 35.332 682.829 35.844 683.896 36.868C685.005 37.892 685.56 39.3427 685.56 41.22C685.56 42.5853 685.027 44.1 683.96 45.764C682.893 47.3853 680.995 49.028 678.264 50.692C675.576 52.356 671.8 53.892 666.936 55.3C667.064 58.0307 667.704 59.9933 668.856 61.188C670.008 62.34 671.565 62.916 673.528 62.916C675.533 62.916 677.261 62.404 678.712 61.38C680.163 60.356 681.315 59.3107 682.168 58.244L683.64 59.396C682.317 61.572 680.653 63.4493 678.648 65.028C676.643 66.564 674.467 67.332 672.12 67.332Z" fill="url(#paint1_linear_1068_6)"/>
<path d="M711.68 78V19.6H736.48C750 19.6 758.56 25.68 758.56 38.4C758.56 51.04 750.08 57.84 736 57.84H723.68V78H711.68ZM723.68 47.52H735.28C741.92 47.52 746.48 45.52 746.48 38.88C746.48 32.08 742.08 29.92 735.6 29.92H723.68V47.52ZM793.571 47.76C792.691 47.52 791.411 47.28 790.291 47.28C782.131 47.28 777.011 52 777.011 63.52V78H765.011V37.52H776.771V45.2H776.931C778.051 42.32 780.371 40 783.011 38.64C785.091 37.52 787.411 36.96 789.651 36.96C791.331 36.96 792.531 37.12 793.571 37.44V47.76ZM818.293 78.96C804.773 78.96 795.973 70.56 795.973 57.76C795.973 44.96 804.773 36.56 818.293 36.56C831.813 36.56 840.613 44.96 840.613 57.76C840.613 70.56 831.813 78.96 818.293 78.96ZM808.293 57.76C808.293 65.2 811.893 70.32 818.293 70.32C824.693 70.32 828.293 65.2 828.293 57.76C828.293 50.32 824.693 45.2 818.293 45.2C811.893 45.2 808.293 50.32 808.293 57.76ZM865.437 94.8C851.517 94.8 846.957 89.6 846.957 85.12C846.957 80.88 850.477 79.6 853.917 78.88V78.32C848.637 77.76 845.197 75.2 845.197 69.92C845.197 66.08 848.237 62.48 854.397 60.4V59.76C850.317 57.52 847.917 54 847.917 49.6C847.917 41.84 855.357 36.56 867.677 36.56C870.397 36.56 872.957 36.8 875.277 37.36L877.597 25.04H890.477V25.44L880.477 39.2C884.717 41.44 887.117 44.96 887.117 49.6C887.117 57.68 879.517 62.64 867.677 62.64C865.597 62.64 863.597 62.48 861.757 62.16C858.717 62.72 856.637 63.76 856.637 65.76C856.637 67.44 857.997 68.48 861.037 68.48H874.797C883.917 68.48 890.477 71.92 890.477 79.6C890.477 89.12 880.237 94.8 865.437 94.8ZM858.317 82.48C858.317 85.76 860.957 88 867.677 88C873.757 88 879.677 86.48 879.677 82.32C879.677 79.44 876.957 78.8 871.197 78.8H864.317C861.037 78.8 858.317 80.08 858.317 82.48ZM860.157 49.6C860.157 53.6 862.717 55.84 867.437 55.84C872.077 55.84 874.877 53.68 874.877 49.6C874.877 45.52 871.917 43.36 867.597 43.36C863.357 43.36 860.157 45.52 860.157 49.6ZM923.493 47.76C922.613 47.52 921.333 47.28 920.213 47.28C912.053 47.28 906.933 52 906.933 63.52V78H894.933V37.52H906.693V45.2H906.853C907.973 42.32 910.293 40 912.933 38.64C915.013 37.52 917.333 36.96 919.573 36.96C921.253 36.96 922.453 37.12 923.493 37.44V47.76ZM940.533 78.88C931.813 78.88 926.293 73.92 926.293 67.68C926.293 61.2 931.333 58.32 937.573 56.48L955.093 51.36C954.853 47.12 951.413 45.12 947.413 45.12C943.253 45.12 938.533 46.88 935.733 53.6L926.373 49.92C930.613 39.68 939.013 36.56 948.293 36.56C960.533 36.56 966.853 42.56 966.853 52.56V65.04C966.853 68.16 967.733 69.52 970.213 69.52C971.333 69.52 972.773 69.28 973.812 68.8V77.28C971.893 78.16 969.813 78.8 966.373 78.8C960.613 78.8 957.173 75.68 956.373 71.92H956.053C953.013 76.32 947.973 78.88 940.533 78.88ZM938.453 66.4C938.453 68.48 940.373 70 943.893 70C949.253 70 953.893 67.52 955.093 62.4V58.56L942.853 62.64C940.293 63.52 938.453 64.32 938.453 66.4ZM978.918 78V37.44H990.598V42.24H990.918C993.718 38.48 997.878 36.56 1002.76 36.56C1008.04 36.56 1012.76 38.72 1015.56 42.88H1015.72C1018.76 38.8 1023.56 36.56 1029.64 36.56C1039 36.56 1045.64 42.24 1045.64 52.64V78H1033.64V54.32C1033.64 49.2 1031.24 46.16 1026.84 46.16C1021.96 46.16 1018.28 49.6 1018.28 56.32V78H1006.28V54.32C1006.28 49.2 1003.96 46.16 999.398 46.16C994.678 46.16 990.918 49.6 990.918 56.32V78H978.918ZM1054.23 78V37.44H1065.91V42.24H1066.23C1069.03 38.48 1073.19 36.56 1078.07 36.56C1083.35 36.56 1088.07 38.72 1090.87 42.88H1091.03C1094.07 38.8 1098.87 36.56 1104.95 36.56C1114.31 36.56 1120.95 42.24 1120.95 52.64V78H1108.95V54.32C1108.95 49.2 1106.55 46.16 1102.15 46.16C1097.27 46.16 1093.59 49.6 1093.59 56.32V78H1081.59V54.32C1081.59 49.2 1079.27 46.16 1074.71 46.16C1069.99 46.16 1066.23 49.6 1066.23 56.32V78H1054.23ZM1169.38 66.64C1166.02 75.36 1157.22 78.88 1148.58 78.88C1135.14 78.88 1127.22 70.64 1127.22 58.24C1127.22 45.36 1135.38 36.56 1149.22 36.56C1162.42 36.56 1170.5 46 1169.7 60.4H1139.22C1140.1 66.64 1143.78 70.08 1149.7 70.08C1154.58 70.08 1158.18 68.24 1159.62 63.68L1169.38 66.64ZM1139.54 53.04H1157.94C1157.14 47.52 1153.62 45.04 1148.98 45.04C1144.1 45.04 1140.66 47.76 1139.54 53.04ZM1181.54 64.4C1183.86 68 1187.7 70.64 1194.1 70.64C1198.98 70.64 1202.74 69.12 1202.74 66.24C1202.74 63.76 1199.94 62.88 1196.74 62.56L1187.14 61.68C1181.86 61.2 1174.58 58.32 1174.66 49.76C1174.82 41.28 1182.58 36.56 1193.38 36.56C1200.66 36.56 1207.94 38.56 1212.5 44.4L1205.7 50.08C1202.26 46.24 1197.94 44.88 1193.3 44.88C1188.58 44.88 1185.22 46.24 1185.22 48.72C1185.22 51.12 1187.7 52 1190.58 52.24L1198.98 53.04C1204.66 53.6 1213.22 55.76 1213.22 65.28C1213.22 74.24 1205.06 78.96 1193.86 78.96C1183.38 78.96 1177.06 75.28 1173.06 68.32L1181.54 64.4Z" fill="white"/>
<path fill-rule="evenodd" clip-rule="evenodd" d="M1238.64 60.8701L1248.51 51H1235V45H1250L1238.89 33.8873L1243.13 29.6447L1254 40.5147V26H1260V39.5147L1269.76 29.7574L1274 34L1263 45H1279V51H1264.49L1274.24 60.7574L1270 65L1260 55V70H1254V54L1242.89 65.1127L1238.64 60.8701Z" fill="#585858"/>
<path d="M1304.68 78V19.6H1316.68V78H1304.68ZM1326.84 37.52H1338.52V42.24H1338.68C1341.64 38.48 1345.96 36.56 1351.32 36.56C1361.4 36.56 1367 42.24 1367 52.64V78H1355V54.32C1355 49.12 1352.52 46.16 1347.72 46.16C1342.6 46.16 1338.84 49.52 1338.84 56.24V78H1326.84V37.52ZM1392.87 78.96C1381.99 78.96 1373.27 71.52 1373.27 57.76C1373.27 44 1381.99 36.56 1392.87 36.56C1398.23 36.56 1403.11 38.96 1405.83 42.08V19.6H1417.83V78H1405.83V73.2C1403.35 76.56 1398.23 78.96 1392.87 78.96ZM1385.59 57.76C1385.59 64.96 1389.51 70.16 1395.51 70.16C1401.59 70.16 1405.91 65.2 1405.91 58.8V56.8C1405.91 50.32 1401.59 45.36 1395.59 45.36C1389.43 45.36 1385.59 50.56 1385.59 57.76ZM1466.52 78H1454.84V73.2H1454.68C1451.8 77.04 1447.4 78.96 1442.04 78.96C1431.96 78.96 1426.36 73.28 1426.36 62.88V37.52H1438.36V61.2C1438.36 66.4 1440.84 69.36 1445.64 69.36C1450.76 69.36 1454.52 65.92 1454.52 59.28V37.52H1466.52V78ZM1480.55 64.4C1482.87 68 1486.71 70.64 1493.11 70.64C1497.99 70.64 1501.75 69.12 1501.75 66.24C1501.75 63.76 1498.95 62.88 1495.75 62.56L1486.15 61.68C1480.87 61.2 1473.59 58.32 1473.67 49.76C1473.83 41.28 1481.59 36.56 1492.39 36.56C1499.67 36.56 1506.95 38.56 1511.51 44.4L1504.71 50.08C1501.27 46.24 1496.95 44.88 1492.31 44.88C1487.59 44.88 1484.23 46.24 1484.23 48.72C1484.23 51.12 1486.71 52 1489.59 52.24L1497.99 53.04C1503.67 53.6 1512.23 55.76 1512.23 65.28C1512.23 74.24 1504.07 78.96 1492.87 78.96C1482.39 78.96 1476.07 75.28 1472.07 68.32L1480.55 64.4ZM1514.8 37.52H1522.08L1524.88 25.68H1532.64V37.52H1543.28V46.32H1532.64V63.28C1532.64 68.24 1533.92 69.84 1538.16 69.84C1539.76 69.84 1541.52 69.6 1543.52 69.2V77.68C1540.4 78.4 1537.76 78.8 1533.84 78.8C1525.04 78.8 1520.64 74.96 1520.64 67.12V46.32H1514.8V37.52ZM1578.37 47.76C1577.49 47.52 1576.21 47.28 1575.09 47.28C1566.93 47.28 1561.81 52 1561.81 63.52V78H1549.81V37.52H1561.57V45.2H1561.73C1562.85 42.32 1565.17 40 1567.81 38.64C1569.89 37.52 1572.21 36.96 1574.45 36.96C1576.13 36.96 1577.33 37.12 1578.37 37.44V47.76ZM1612.35 37.52H1624.83L1607.87 82.16C1604.43 91.12 1598.83 94.8 1589.71 94.8C1586.75 94.8 1583.15 94.24 1581.15 93.44V84.4C1583.95 85.2 1586.91 85.52 1588.91 85.52C1591.71 85.52 1592.83 85.12 1593.95 84.16C1595.15 83.2 1595.47 82.08 1595.47 80.48C1595.47 78.8 1594.91 76.8 1593.47 73.2L1579.47 37.52H1592.35L1602.51 68.32H1602.67L1612.35 37.52Z" fill="white"/>
<path d="M1652.81 26.244L1653.32 23.62H1670.28L1669.77 26.244L1664.26 26.884L1660.55 46.66C1660.04 49.3907 1659.55 52.1427 1659.08 54.916C1658.61 57.6893 1658.14 60.4627 1657.67 63.236L1663.5 63.94L1662.98 66.5H1646.02L1646.54 63.94L1651.98 63.3L1655.75 43.46C1656.78 37.956 1657.74 32.452 1658.63 26.948L1652.81 26.244ZM1708.42 67.332C1707.39 67.332 1706.58 67.076 1705.98 66.564C1705.43 66.052 1705.15 65.3907 1705.15 64.58C1705.15 63.8547 1705.24 63.1507 1705.41 62.468C1705.62 61.7427 1705.88 60.7187 1706.18 59.396L1708.93 48.132C1709.18 47.0227 1709.42 45.9773 1709.63 44.996C1709.84 44.0147 1709.95 43.204 1709.95 42.564C1709.95 41.4547 1709.76 40.6867 1709.38 40.26C1708.99 39.8333 1708.44 39.62 1707.71 39.62C1705.62 39.62 1702.31 41.4973 1697.79 45.252L1696.13 53.06C1695.62 55.2787 1695.15 57.5187 1694.72 59.78C1694.29 61.9987 1693.87 64.2387 1693.44 66.5L1689.28 67.012L1688.64 66.5L1693.06 45.636C1693.14 45.0813 1693.25 44.5267 1693.38 43.972C1693.5 43.4173 1693.57 42.884 1693.57 42.372C1693.57 41.348 1693.38 40.644 1692.99 40.26C1692.61 39.8333 1692.05 39.62 1691.33 39.62C1690.18 39.62 1688.7 40.0893 1686.91 41.028C1685.16 41.9667 1683.11 43.396 1680.77 45.316L1679.04 53.06C1678.57 55.2787 1678.12 57.5187 1677.7 59.78C1677.31 61.9987 1676.91 64.2387 1676.48 66.5L1672.19 67.012L1671.55 66.5L1676.99 40.836L1670.66 40.452L1670.91 38.596L1681.79 35.332L1682.62 35.972L1681.28 42.564C1683.37 40.5587 1685.63 38.852 1688.06 37.444C1690.5 36.036 1692.69 35.332 1694.66 35.332C1697.34 35.332 1698.69 36.804 1698.69 39.748C1698.69 40.1747 1698.64 40.6227 1698.56 41.092C1698.52 41.5187 1698.45 41.9667 1698.37 42.436C1700.37 40.4733 1702.51 38.8093 1704.77 37.444C1707.07 36.036 1709.18 35.332 1711.1 35.332C1713.79 35.332 1715.14 36.804 1715.14 39.748C1715.14 40.772 1715.01 41.8173 1714.75 42.884C1714.54 43.908 1714.3 44.9533 1714.05 46.02L1711.17 57.86C1710.95 58.756 1710.76 59.524 1710.59 60.164C1710.42 60.7613 1710.34 61.2307 1710.34 61.572C1710.34 61.9987 1710.46 62.34 1710.72 62.596C1710.98 62.8093 1711.27 62.916 1711.62 62.916C1713.24 62.916 1715.33 61.38 1717.89 58.308L1719.42 59.524C1718.53 60.804 1717.5 62.0413 1716.35 63.236C1715.24 64.4307 1714.03 65.412 1712.7 66.18C1711.38 66.948 1709.95 67.332 1708.42 67.332ZM1760.79 67.332C1759.77 67.332 1758.96 67.076 1758.36 66.564C1757.8 66.052 1757.53 65.3907 1757.53 64.58C1757.53 63.8547 1757.61 63.1507 1757.78 62.468C1758 61.7427 1758.25 60.7187 1758.55 59.396L1761.3 48.132C1761.56 47.0227 1761.79 45.9773 1762.01 44.996C1762.22 44.0147 1762.33 43.204 1762.33 42.564C1762.33 41.4547 1762.13 40.6867 1761.75 40.26C1761.37 39.8333 1760.81 39.62 1760.09 39.62C1758 39.62 1754.69 41.4973 1750.17 45.252L1748.5 53.06C1747.99 55.2787 1747.52 57.5187 1747.09 59.78C1746.67 61.9987 1746.24 64.2387 1745.81 66.5L1741.65 67.012L1741.01 66.5L1745.43 45.636C1745.52 45.0813 1745.62 44.5267 1745.75 43.972C1745.88 43.4173 1745.94 42.884 1745.94 42.372C1745.94 41.348 1745.75 40.644 1745.37 40.26C1744.98 39.8333 1744.43 39.62 1743.7 39.62C1742.55 39.62 1741.08 40.0893 1739.29 41.028C1737.54 41.9667 1735.49 43.396 1733.14 45.316L1731.41 53.06C1730.95 55.2787 1730.5 57.5187 1730.07 59.78C1729.69 61.9987 1729.28 64.2387 1728.85 66.5L1724.57 67.012L1723.93 66.5L1729.37 40.836L1723.03 40.452L1723.29 38.596L1734.17 35.332L1735 35.972L1733.65 42.564C1735.75 40.5587 1738.01 38.852 1740.44 37.444C1742.87 36.036 1745.07 35.332 1747.03 35.332C1749.72 35.332 1751.06 36.804 1751.06 39.748C1751.06 40.1747 1751.02 40.6227 1750.93 41.092C1750.89 41.5187 1750.83 41.9667 1750.74 42.436C1752.75 40.4733 1754.88 38.8093 1757.14 37.444C1759.45 36.036 1761.56 35.332 1763.48 35.332C1766.17 35.332 1767.51 36.804 1767.51 39.748C1767.51 40.772 1767.38 41.8173 1767.13 42.884C1766.91 43.908 1766.68 44.9533 1766.42 46.02L1763.54 57.86C1763.33 58.756 1763.14 59.524 1762.97 60.164C1762.8 60.7613 1762.71 61.2307 1762.71 61.572C1762.71 61.9987 1762.84 62.34 1763.09 62.596C1763.35 62.8093 1763.65 62.916 1763.99 62.916C1765.61 62.916 1767.7 61.38 1770.26 58.308L1771.8 59.524C1770.9 60.804 1769.88 62.0413 1768.73 63.236C1767.62 64.4307 1766.4 65.412 1765.08 66.18C1763.76 66.948 1762.33 67.332 1760.79 67.332ZM1790.19 38.084C1789.21 38.084 1788.12 38.468 1786.93 39.236C1785.77 40.004 1784.64 41.0707 1783.53 42.436C1782.42 43.8013 1781.49 45.38 1780.72 47.172C1779.99 48.9213 1779.54 50.7987 1779.37 52.804C1782.91 51.78 1785.73 50.6493 1787.82 49.412C1789.95 48.132 1791.47 46.852 1792.37 45.572C1793.3 44.2493 1793.77 43.012 1793.77 41.86C1793.77 40.6653 1793.43 39.748 1792.75 39.108C1792.11 38.4253 1791.26 38.084 1790.19 38.084ZM1784.56 67.332C1781.74 67.332 1779.42 66.372 1777.58 64.452C1775.79 62.532 1774.89 59.524 1774.89 55.428C1774.89 52.868 1775.34 50.3933 1776.24 48.004C1777.13 45.572 1778.35 43.4173 1779.89 41.54C1781.42 39.62 1783.19 38.1053 1785.2 36.996C1787.25 35.8867 1789.38 35.332 1791.6 35.332C1793.69 35.332 1795.27 35.844 1796.33 36.868C1797.44 37.892 1798 39.3427 1798 41.22C1798 42.5853 1797.46 44.1 1796.4 45.764C1795.33 47.3853 1793.43 49.028 1790.7 50.692C1788.01 52.356 1784.24 53.892 1779.37 55.3C1779.5 58.0307 1780.14 59.9933 1781.29 61.188C1782.45 62.34 1784 62.916 1785.97 62.916C1787.97 62.916 1789.7 62.404 1791.15 61.38C1792.6 60.356 1793.75 59.3107 1794.61 58.244L1796.08 59.396C1794.75 61.572 1793.09 63.4493 1791.09 65.028C1789.08 66.564 1786.9 67.332 1784.56 67.332ZM1802.36 66.5L1807.8 40.836L1801.47 40.452L1801.72 38.596L1812.28 35.332L1813.12 35.972L1811.71 44.548C1812.65 42.9267 1813.63 41.4333 1814.65 40.068C1815.72 38.66 1816.83 37.5293 1817.98 36.676C1819.13 35.78 1820.26 35.332 1821.37 35.332C1822.27 35.332 1823.1 35.4813 1823.87 35.78C1824.64 36.036 1825.23 36.5267 1825.66 37.252C1825.62 38.3187 1825.3 39.1933 1824.7 39.876C1824.15 40.516 1823.33 40.836 1822.27 40.836C1821.71 40.836 1821.09 40.6867 1820.41 40.388C1819.77 40.0467 1819.13 39.6413 1818.49 39.172C1816.96 40.452 1815.55 41.9667 1814.27 43.716C1812.99 45.4653 1811.77 47.4707 1810.62 49.732L1809.85 53.06C1809.38 55.2787 1808.93 57.5187 1808.51 59.78C1808.12 61.9987 1807.72 64.2387 1807.29 66.5L1803 67.012L1802.36 66.5ZM1842.56 58.244C1842.56 60.8893 1841.55 63.0653 1839.55 64.772C1837.59 66.4787 1834.98 67.332 1831.74 67.332C1829.27 67.332 1827.37 66.756 1826.04 65.604C1824.76 64.452 1824.02 62.916 1823.8 60.996C1823.97 60.4413 1824.27 60.0147 1824.7 59.716C1825.17 59.3747 1825.66 59.204 1826.17 59.204C1827.11 59.204 1827.79 59.46 1828.22 59.972C1828.69 60.4413 1829.03 61.124 1829.24 62.02L1829.95 64.772C1830.08 64.8147 1830.2 64.836 1830.33 64.836C1830.5 64.836 1830.67 64.836 1830.84 64.836C1833.06 64.836 1834.79 64.3453 1836.03 63.364C1837.27 62.3827 1837.88 61.06 1837.88 59.396C1837.88 58.372 1837.65 57.3907 1837.18 56.452C1836.71 55.5133 1835.56 54.3827 1833.72 53.06C1832.15 51.8227 1830.8 50.564 1829.69 49.284C1828.63 47.9613 1828.09 46.2973 1828.09 44.292C1828.09 42.628 1828.52 41.1133 1829.37 39.748C1830.23 38.3827 1831.4 37.316 1832.89 36.548C1834.43 35.7373 1836.22 35.332 1838.27 35.332C1840.15 35.332 1841.77 35.7587 1843.13 36.612C1844.5 37.4227 1845.41 38.8733 1845.88 40.964C1845.5 42.1587 1844.69 42.756 1843.45 42.756C1841.96 42.756 1840.87 41.7533 1840.19 39.748L1839.61 37.892C1839.48 37.8493 1839.33 37.828 1839.16 37.828C1839.04 37.828 1838.89 37.828 1838.72 37.828C1836.5 37.828 1834.92 38.34 1833.98 39.364C1833.08 40.388 1832.64 41.6253 1832.64 43.076C1832.64 44.3987 1832.96 45.508 1833.6 46.404C1834.28 47.2573 1835.54 48.3667 1837.37 49.732C1839.29 51.1827 1840.64 52.5053 1841.4 53.7C1842.17 54.852 1842.56 56.3667 1842.56 58.244ZM1850.32 64.068C1850.32 63.5987 1850.37 63.044 1850.45 62.404C1850.54 61.7213 1850.73 60.7187 1851.03 59.396L1854.87 40.836L1848.53 40.452L1848.79 38.596L1859.67 35.332L1860.5 35.972L1855.95 57.86C1855.78 58.6707 1855.63 59.396 1855.51 60.036C1855.42 60.676 1855.38 61.1667 1855.38 61.508C1855.38 61.9347 1855.53 62.276 1855.83 62.532C1856.13 62.788 1856.45 62.916 1856.79 62.916C1858.32 62.916 1860.37 61.38 1862.93 58.308L1864.53 59.524C1863.59 60.804 1862.57 62.0413 1861.46 63.236C1860.39 64.4307 1859.22 65.412 1857.94 66.18C1856.7 66.948 1855.31 67.332 1853.78 67.332C1852.93 67.332 1852.14 67.0547 1851.41 66.5C1850.69 65.9453 1850.32 65.1347 1850.32 64.068ZM1859.73 26.628C1858.71 26.628 1857.87 26.308 1857.23 25.668C1856.59 24.9853 1856.27 24.0467 1856.27 22.852C1856.27 21.7853 1856.66 20.868 1857.43 20.1C1858.19 19.2893 1859.07 18.884 1860.05 18.884C1861.07 18.884 1861.91 19.2253 1862.55 19.908C1863.19 20.548 1863.51 21.444 1863.51 22.596C1863.51 23.62 1863.12 24.5587 1862.35 25.412C1861.59 26.2227 1860.71 26.628 1859.73 26.628ZM1874.83 66.628C1874.7 61.5933 1874.51 57.1987 1874.25 53.444C1874 49.6893 1873.63 46.1267 1873.17 42.756C1873.04 41.476 1872.82 40.6653 1872.53 40.324C1872.23 39.94 1871.84 39.748 1871.37 39.748C1870.82 39.748 1870.22 40.0467 1869.58 40.644C1868.98 41.1987 1868.13 42.308 1867.02 43.972L1865.55 42.948C1867.81 37.8707 1870.5 35.332 1873.61 35.332C1874.94 35.332 1875.9 35.7373 1876.49 36.548C1877.13 37.3587 1877.6 38.6387 1877.9 40.388C1878.37 43.2467 1878.69 46.532 1878.86 50.244C1879.03 53.956 1879.14 57.668 1879.18 61.38C1881.44 58.7347 1883.43 56.132 1885.13 53.572C1886.84 50.9693 1888.48 48.196 1890.06 45.252C1890.1 45.1667 1890.13 45.1027 1890.13 45.06C1890.17 44.9747 1890.21 44.9107 1890.25 44.868L1889.81 42.372C1889.76 41.9453 1889.7 41.4973 1889.61 41.028C1889.57 40.5587 1889.55 40.1747 1889.55 39.876C1889.55 38.2547 1889.85 37.1027 1890.45 36.42C1891.09 35.6947 1891.94 35.332 1893.01 35.332C1893.6 35.332 1894.11 35.4173 1894.54 35.588C1894.97 35.7587 1895.27 35.9507 1895.44 36.164C1895.65 36.4627 1895.76 37.06 1895.76 37.956C1895.76 38.3827 1895.69 38.916 1895.57 39.556C1895.48 40.196 1895.2 41.0707 1894.73 42.18C1894.31 43.2467 1893.58 44.74 1892.56 46.66C1891.58 48.5373 1890.27 50.628 1888.65 52.932C1887.07 55.1933 1885.3 57.5187 1883.34 59.908C1881.38 62.2547 1879.31 64.5373 1877.13 66.756L1875.28 66.948L1874.83 66.628ZM1912.75 38.084C1911.77 38.084 1910.68 38.468 1909.49 39.236C1908.34 40.004 1907.21 41.0707 1906.1 42.436C1904.99 43.8013 1904.05 45.38 1903.28 47.172C1902.55 48.9213 1902.11 50.7987 1901.94 52.804C1905.48 51.78 1908.29 50.6493 1910.38 49.412C1912.52 48.132 1914.03 46.852 1914.93 45.572C1915.87 44.2493 1916.34 43.012 1916.34 41.86C1916.34 40.6653 1915.99 39.748 1915.31 39.108C1914.67 38.4253 1913.82 38.084 1912.75 38.084ZM1907.12 67.332C1904.3 67.332 1901.98 66.372 1900.14 64.452C1898.35 62.532 1897.46 59.524 1897.46 55.428C1897.46 52.868 1897.9 50.3933 1898.8 48.004C1899.7 45.572 1900.91 43.4173 1902.45 41.54C1903.98 39.62 1905.75 38.1053 1907.76 36.996C1909.81 35.8867 1911.94 35.332 1914.16 35.332C1916.25 35.332 1917.83 35.844 1918.9 36.868C1920.01 37.892 1920.56 39.3427 1920.56 41.22C1920.56 42.5853 1920.03 44.1 1918.96 45.764C1917.89 47.3853 1915.99 49.028 1913.26 50.692C1910.58 52.356 1906.8 53.892 1901.94 55.3C1902.06 58.0307 1902.7 59.9933 1903.86 61.188C1905.01 62.34 1906.57 62.916 1908.53 62.916C1910.53 62.916 1912.26 62.404 1913.71 61.38C1915.16 60.356 1916.31 59.3107 1917.17 58.244L1918.64 59.396C1917.32 61.572 1915.65 63.4493 1913.65 65.028C1911.64 66.564 1909.47 67.332 1907.12 67.332Z" fill="url(#paint2_linear_1068_6)"/>
<path d="M1947.4 78V19.6H1974.68C1989.32 19.6 1997.48 26.32 1997.48 38.4C1997.48 50.8 1989 57.84 1974.2 57.84H1959.4V78H1947.4ZM1959.4 47.52H1973.48C1981.64 47.52 1985.4 44.8 1985.4 38.88C1985.4 32.72 1981.72 29.92 1973.88 29.92H1959.4V47.52ZM2036.87 45.6C2035.51 45.2 2034.23 45.12 2033.03 45.12C2023.59 45.12 2017.11 52.8 2017.11 64.16V78H2005.11V35.36H2016.79V50.24H2016.95C2018.87 41.92 2021.35 38.24 2026.63 36C2028.31 35.28 2030.55 34.88 2032.87 34.88C2034.31 34.88 2035.67 35.04 2036.87 35.36V45.6ZM2063.35 78.96C2048.87 78.96 2039.43 70.16 2039.43 56.72C2039.43 43.28 2048.87 34.4 2063.35 34.4C2077.83 34.4 2087.27 43.28 2087.27 56.72C2087.27 70.16 2077.83 78.96 2063.35 78.96ZM2051.75 56.72C2051.75 65.04 2056.15 70.16 2063.35 70.16C2070.55 70.16 2074.95 65.04 2074.95 56.72C2074.95 48.4 2070.47 43.2 2063.35 43.2C2056.23 43.2 2051.75 48.4 2051.75 56.72ZM2115.26 94.8C2103.1 94.8 2095.34 90.88 2095.34 84.72C2095.34 81.04 2098.54 78.56 2104.14 78V77.76C2097.5 77.52 2093.5 74.24 2093.5 68.88C2093.5 64 2097.58 60.16 2103.98 59.04V58.72C2099.34 56.4 2096.62 52.64 2096.62 47.92C2096.62 39.68 2104.78 34.4 2117.58 34.4C2121.1 34.4 2124.3 34.8 2127.02 35.52L2128.3 22.48H2141.98V22.88L2130.3 36.72C2135.34 39.04 2138.22 42.88 2138.22 47.92C2138.22 56.32 2130.3 61.52 2117.66 61.52C2114.62 61.52 2111.9 61.2 2109.42 60.64C2105.66 61.2 2103.9 62.56 2103.9 64.88C2103.9 66.72 2105.66 67.76 2108.94 67.76H2125.26C2135.9 67.76 2141.9 71.92 2141.9 79.12C2141.9 88.64 2131.5 94.8 2115.26 94.8ZM2106.14 82C2106.14 85.84 2110.06 87.84 2117.74 87.84C2126.06 87.84 2130.94 85.6 2130.94 81.84C2130.94 79.04 2128.54 78.16 2120.86 78.16H2111.74C2107.9 78.16 2106.14 79.36 2106.14 82ZM2108.94 47.92C2108.94 52.16 2111.9 54.48 2117.34 54.48C2122.86 54.48 2125.9 52.16 2125.9 48C2125.9 43.84 2122.86 41.44 2117.5 41.44C2112.14 41.44 2108.94 43.92 2108.94 47.92ZM2179.76 45.6C2178.4 45.2 2177.12 45.12 2175.92 45.12C2166.48 45.12 2160 52.8 2160 64.16V78H2148V35.36H2159.68V50.24H2159.84C2161.76 41.92 2164.24 38.24 2169.52 36C2171.2 35.28 2173.44 34.88 2175.76 34.88C2177.2 34.88 2178.56 35.04 2179.76 35.36V45.6ZM2196.39 78.96C2188.39 78.96 2182.47 74.08 2182.47 67.52C2182.47 61.6 2186.23 57.76 2193.91 55.68L2213.27 50.48V49.92C2213.27 45.12 2210.47 42.72 2205.03 42.72C2199.35 42.72 2195.35 45.92 2193.03 52.4L2183.35 48.8C2186.87 39.28 2194.31 34.48 2205.51 34.48C2217.51 34.48 2225.11 40.32 2225.11 49.68V64.64C2225.11 67.92 2226.31 69.44 2228.79 69.44C2230.07 69.44 2231.75 69.04 2232.79 68.4V77.12C2230.63 78.08 2226.87 78.8 2224.23 78.8C2217.75 78.8 2213.59 75.04 2213.59 69.2V68.32H2213.27C2210.07 74.96 2203.99 78.96 2196.39 78.96ZM2194.23 65.76C2194.23 68.24 2196.55 69.92 2199.83 69.92C2205.43 69.92 2211.43 65.76 2213.27 60.96V56.8L2199.35 61.6C2195.35 62.96 2194.23 63.92 2194.23 65.76ZM2238.71 35.36H2250.39V44.96H2250.71C2253.03 38.16 2258.31 34.4 2266.07 34.4C2273.59 34.4 2278.63 38.24 2280.39 45.12H2280.55C2283.03 38.32 2288.55 34.4 2296.31 34.4C2306.07 34.4 2311.51 40.56 2311.51 51.44V78H2299.51V53.04C2299.51 47.2 2296.63 44.08 2291.43 44.08C2285.03 44.08 2281.11 48.32 2281.11 55.2V78H2269.11V53.04C2269.11 47.2 2266.31 44.08 2260.95 44.08C2254.71 44.08 2250.71 48.4 2250.71 55.2V78H2238.71V35.36ZM2321.99 35.36H2333.67V44.96H2333.99C2336.31 38.16 2341.59 34.4 2349.35 34.4C2356.87 34.4 2361.91 38.24 2363.67 45.12H2363.83C2366.31 38.32 2371.83 34.4 2379.59 34.4C2389.35 34.4 2394.79 40.56 2394.79 51.44V78H2382.79V53.04C2382.79 47.2 2379.91 44.08 2374.71 44.08C2368.31 44.08 2364.39 48.32 2364.39 55.2V78H2352.39V53.04C2352.39 47.2 2349.59 44.08 2344.23 44.08C2337.99 44.08 2333.99 48.4 2333.99 55.2V78H2321.99V35.36ZM2448.39 64.56C2445.11 73.76 2436.87 78.96 2425.51 78.96C2411.67 78.96 2402.79 70.48 2402.79 57.28C2402.79 43.6 2411.99 34.4 2425.83 34.4C2440.07 34.4 2448.47 43.44 2448.47 58.72H2414.63C2415.27 66.24 2419.19 70.08 2426.23 70.08C2432.63 70.08 2437.19 66.96 2438.63 61.52L2448.39 64.56ZM2415.03 51.6H2436.15C2434.95 45.92 2431.43 43.04 2425.83 43.04C2419.99 43.04 2416.31 46 2415.03 51.6ZM2461.71 62.72C2464.11 67.76 2469.15 70.56 2475.87 70.56C2481.71 70.56 2485.63 68.4 2485.63 65.2C2485.63 62.88 2483.55 61.6 2478.83 61.2C2475.71 60.96 2473.07 60.88 2469.95 60.56C2460.67 59.76 2455.79 55.6 2455.79 48.56C2455.79 40.16 2463.63 34.4 2475.07 34.4C2483.63 34.4 2490.67 37.44 2494.99 42.88L2487.95 48.8C2484.83 44.88 2480.35 42.72 2475.47 42.72C2470.35 42.72 2466.99 44.56 2466.99 47.28C2466.99 49.6 2468.51 50.56 2472.59 50.96C2474.99 51.2 2478.35 51.28 2480.91 51.52C2491.31 52.4 2496.67 56.72 2496.67 64.16C2496.67 73.2 2488.51 78.96 2475.71 78.96C2464.27 78.96 2456.75 74.72 2453.07 66.16L2461.71 62.72Z" fill="white"/>
<defs>
<linearGradient id="paint0_linear_1068_6" x1="-9.30447e-08" y1="49.1582" x2="44" y2="49.1582" gradientUnits="userSpaceOnUse">
<stop stop-color="#6CAFFF"/>
<stop offset="0.276042" stop-color="#FF7BAD"/>
<stop offset="0.635417" stop-color="#FFC940"/>
<stop offset="1" stop-color="#FFC940"/>
</linearGradient>
<linearGradient id="paint1_linear_1068_6" x1="410" y1="50.0268" x2="686" y2="50.0268" gradientUnits="userSpaceOnUse">
<stop stop-color="#6CAFFF"/>
<stop offset="0.276042" stop-color="#FF7BAD"/>
<stop offset="0.635417" stop-color="#FFC940"/>
<stop offset="1" stop-color="#FFC940"/>
</linearGradient>
<linearGradient id="paint2_linear_1068_6" x1="1645" y1="50.0268" x2="1921" y2="50.0268" gradientUnits="userSpaceOnUse">
<stop stop-color="#6CAFFF"/>
<stop offset="0.276042" stop-color="#FF7BAD"/>
<stop offset="0.635417" stop-color="#FFC940"/>
<stop offset="1" stop-color="#FFC940"/>
</linearGradient>
</defs>
</svg>
