<svg width="202" height="40" viewBox="0 0 202 40" fill="none" xmlns="http://www.w3.org/2000/svg">
<g clip-path="url(#clip0_0_4060)">
<path d="M39.8689 35.4755C40.0656 35.7377 40.1967 36.0656 40.1967 36.4591C40.1967 36.7869 40.1312 37.1148 39.9344 37.3771C39.7377 37.6394 39.541 37.8361 39.2131 37.9673C38.8853 38.0984 38.5574 38.164 38.0984 38.164H35.4099V31.8689H38.0328C38.4918 31.8689 38.8197 31.9345 39.1476 32.0656C39.4754 32.1968 39.6721 32.3935 39.8689 32.6558C40 32.9181 40.1312 33.1804 40.1312 33.5082C40.1312 33.9017 40.0656 34.164 39.8689 34.4263C39.6721 34.6886 39.4099 34.8197 39.082 34.9509C39.3443 35.0164 39.6721 35.2132 39.8689 35.4755ZM36.7213 34.4918H37.9017C38.2295 34.4918 38.4262 34.4263 38.623 34.2951C38.7541 34.164 38.8853 33.9673 38.8853 33.705C38.8853 33.4427 38.8197 33.2459 38.623 33.1148C38.4918 32.9836 38.2295 32.9181 37.9017 32.9181H36.7213V34.4918ZM38.6885 36.9837C38.8853 36.8525 38.9508 36.6558 38.9508 36.3935C38.9508 36.1312 38.8853 35.9345 38.6885 35.7377C38.4918 35.6066 38.2951 35.4755 37.9672 35.4755H36.7213V37.1804H37.9672C38.2951 37.1804 38.4918 37.1148 38.6885 36.9837Z" fill="white"/>
<path d="M46.6886 31.9345L44.5903 36V38.164H43.2788V36L41.1149 31.9345H42.5575L43.9345 34.7541L45.246 31.8689H46.6886V31.9345Z" fill="white"/>
<path d="M57.9015 31.9345V38.2296H56.6556V34.0984L54.9507 38.164H53.9671L52.2621 34.0984V38.164H51.0162V31.8689H52.4589L54.4261 36.5246L56.3933 31.8689H57.9015V31.9345Z" fill="white"/>
<path d="M63.6063 36.9837H61.1145L60.721 38.164H59.4095L61.6391 31.8689H63.0817L65.3112 38.164H63.9997L63.6063 36.9837ZM63.2784 36L62.3604 33.3771L61.4423 36H63.2784Z" fill="white"/>
<path d="M67.6721 38.0328C67.3443 37.9017 67.0164 37.6394 66.8197 37.3771C66.623 37.1148 66.4918 36.7869 66.4918 36.3935H67.8689C67.8689 36.6558 68 36.8525 68.1312 36.9837C68.3279 37.1148 68.5246 37.1804 68.7869 37.1804C69.0492 37.1804 69.3115 37.1148 69.5082 36.9837C69.7049 36.8525 69.7705 36.6558 69.7705 36.4591C69.7705 36.2623 69.7049 36.1312 69.5738 36C69.4426 35.8689 69.3115 35.8033 69.1148 35.7377C68.9181 35.6722 68.7213 35.6066 68.3935 35.4755C68 35.3443 67.6722 35.2132 67.4099 35.1476C67.1476 35.0164 66.9508 34.8853 66.7541 34.623C66.5574 34.3607 66.4918 34.0984 66.4918 33.705C66.4918 33.3115 66.5574 32.9837 66.7541 32.7214C66.9508 32.4591 67.2131 32.2623 67.541 32.0656C67.8689 31.9345 68.2623 31.8689 68.7213 31.8689C69.3771 31.8689 69.9017 32 70.2951 32.3279C70.6885 32.6558 70.9508 33.1148 70.9508 33.6394H69.5738C69.5738 33.4427 69.4426 33.2459 69.3115 33.1148C69.1148 32.9836 68.918 32.9181 68.6558 32.9181C68.3935 32.9181 68.1967 32.9836 68.0656 33.1148C67.9344 33.2459 67.8689 33.4427 67.8689 33.6394C67.8689 33.8361 67.9344 33.9673 68.0656 34.0328C68.1967 34.164 68.3279 34.2296 68.459 34.2951C68.6558 34.3607 68.8525 34.4263 69.1803 34.5574C69.5738 34.6886 69.9017 34.8197 70.164 34.8853C70.4262 35.0164 70.623 35.2132 70.8197 35.4099C71.0164 35.6722 71.082 35.9345 71.082 36.3279C71.082 36.6558 71.0164 36.9836 70.8197 37.2459C70.623 37.5082 70.3607 37.7705 70.0328 37.9673C69.7049 38.164 69.3115 38.2296 68.8525 38.2296C68.3935 38.2296 68 38.164 67.6721 38.0328Z" fill="white"/>
<path d="M76.9836 31.9343V32.9835H75.2787V38.2294H74.0328V32.9835H72.3279V31.9343H76.9836Z" fill="white"/>
<path d="M79.7377 32.9181V34.4918H81.836V35.4755H79.7377V37.1148H82.0983V38.164H78.4262V31.8689H82.0983V32.9181H79.7377Z" fill="white"/>
<path d="M87.2787 38.2294L85.9016 35.8032H85.2459V38.2294H84V31.9343H86.3606C86.8197 31.9343 87.2787 31.9999 87.6066 32.1966C87.9344 32.3933 88.1967 32.5901 88.3934 32.9179C88.5902 33.1802 88.6557 33.5081 88.6557 33.9015C88.6557 34.295 88.5246 34.6884 88.3279 35.0163C88.0656 35.3442 87.7377 35.6065 87.2787 35.7376L88.7869 38.295H87.2787V38.2294ZM85.2459 34.8196H86.2951C86.623 34.8196 86.8852 34.754 87.082 34.5573C87.2787 34.3606 87.3443 34.1638 87.3443 33.836C87.3443 33.5737 87.2787 33.3114 87.082 33.1802C86.8852 33.0491 86.6885 32.9179 86.2951 32.9179H85.2459V34.8196Z" fill="white"/>
<path d="M91.3443 38.0328C91.0164 37.9017 90.6885 37.6394 90.4918 37.3771C90.2951 37.1148 90.1639 36.7869 90.1639 36.3935H91.541C91.541 36.6558 91.6721 36.8525 91.8033 36.9837C92 37.1148 92.1967 37.1804 92.459 37.1804C92.7213 37.1804 92.9836 37.1148 93.1803 36.9837C93.3771 36.8525 93.4426 36.6558 93.4426 36.4591C93.4426 36.2623 93.3771 36.1312 93.2459 36C93.1148 35.8689 92.9836 35.8033 92.7869 35.7377C92.5902 35.6722 92.3934 35.6066 92.0656 35.4755C91.6721 35.3443 91.3443 35.2132 91.082 35.1476C90.8197 35.0164 90.623 34.8853 90.4262 34.623C90.2295 34.3607 90.1639 34.0984 90.1639 33.705C90.1639 33.3115 90.2295 32.9837 90.4262 32.7214C90.623 32.4591 90.8853 32.2623 91.2131 32.0656C91.541 31.9345 91.9344 31.8689 92.3934 31.8689C93.0492 31.8689 93.5738 32 93.9672 32.3279C94.3607 32.6558 94.623 33.1148 94.623 33.6394H93.2459C93.2459 33.4427 93.1148 33.2459 92.9836 33.1148C92.7869 32.9836 92.5902 32.9181 92.3279 32.9181C92.0656 32.9181 91.8689 32.9836 91.7377 33.1148C91.6066 33.2459 91.541 33.4427 91.541 33.6394C91.541 33.8361 91.6066 33.9673 91.7377 34.0328C91.8689 34.164 92 34.2296 92.1312 34.2951C92.3279 34.3607 92.5246 34.4263 92.8525 34.5574C93.2459 34.6886 93.5738 34.8197 93.8361 34.8853C94.0984 35.0164 94.2951 35.2132 94.4918 35.4099C94.6885 35.6722 94.7541 35.9345 94.7541 36.3279C94.7541 36.6558 94.6885 36.9836 94.4918 37.2459C94.2951 37.5082 94.0328 37.7705 93.7049 37.9673C93.3771 38.164 92.9836 38.2296 92.5246 38.2296C92.1312 38.2296 91.7377 38.164 91.3443 38.0328Z" fill="white"/>
<path d="M96.8525 31.9343H98.1639L97.1803 34.2294H96.3279L96.8525 31.9343Z" fill="white"/>
<path d="M104 31.9343V35.8032C104 36.2622 104.131 36.5245 104.328 36.7868C104.525 36.9835 104.852 37.1147 105.246 37.1147C105.639 37.1147 105.967 36.9835 106.164 36.7868C106.361 36.5901 106.492 36.2622 106.492 35.8032V31.9343H107.738V35.8032C107.738 36.3278 107.607 36.7868 107.41 37.1802C107.148 37.5737 106.885 37.836 106.492 38.0327C106.098 38.2294 105.705 38.295 105.18 38.295C104.721 38.295 104.262 38.2294 103.934 38.0327C103.541 37.836 103.279 37.5737 103.016 37.1802C102.754 36.7868 102.689 36.3278 102.689 35.8032V31.9343H104Z" fill="white"/>
<path d="M115.213 38.2294H113.967L111.082 33.9015V38.2294H109.836V31.9343H111.082L113.967 36.2622V31.9343H115.213V38.2294Z" fill="white"/>
<path d="M118.492 31.9343V38.2294H117.246V31.9343H118.492Z" fill="white"/>
<path d="M121.77 37.836C121.246 37.5737 120.918 37.1803 120.59 36.6557C120.328 36.1967 120.131 35.6065 120.131 35.0163C120.131 34.4262 120.262 33.836 120.59 33.377C120.852 32.918 121.246 32.5245 121.77 32.1967C122.295 31.9344 122.82 31.8032 123.41 31.8032C124 31.8032 124.525 31.9344 125.049 32.1967C125.508 32.459 125.902 32.8524 126.229 33.377C126.492 33.836 126.689 34.4262 126.689 35.0163C126.689 35.6065 126.557 36.1967 126.229 36.6557C125.967 37.1147 125.574 37.5081 125.049 37.836C124.525 38.0983 124 38.2295 123.41 38.2295C122.82 38.2295 122.295 38.0983 121.77 37.836ZM124.393 36.8524C124.656 36.6557 124.918 36.459 125.049 36.1311C125.18 35.8032 125.311 35.4754 125.311 35.0163C125.311 34.6229 125.246 34.2295 125.049 33.9016C124.918 33.5737 124.656 33.377 124.393 33.1803C124.131 32.9835 123.803 32.918 123.41 32.918C123.016 32.918 122.689 32.9835 122.426 33.1803C122.164 33.377 121.902 33.5737 121.77 33.9016C121.639 34.2295 121.508 34.5573 121.508 35.0163C121.508 35.4098 121.574 35.8032 121.77 36.1311C121.902 36.459 122.164 36.7213 122.426 36.8524C122.689 37.0491 123.082 37.1147 123.41 37.1147C123.738 37.1147 124.131 37.0491 124.393 36.8524Z" fill="white"/>
<path d="M133.705 38.2294H132.459L129.574 33.9015V38.2294H128.328V31.9343H129.574L132.459 36.2622V31.9343H133.705V38.2294Z" fill="white"/>
<path d="M35.4099 21.9671C35.4099 20.9835 35.6721 20.1311 36.2623 19.4098C36.8525 18.6884 37.5738 18.0983 38.5574 17.7048C39.541 17.3114 40.6558 17.0491 41.9017 17.0491C42.5574 17.0491 43.2131 17.1147 43.8033 17.1802C44.459 17.3114 44.9836 17.4425 45.5082 17.6393V16.918C45.5082 15.9999 45.2459 15.2786 44.6558 14.8196C44.1312 14.3606 43.2787 14.0983 42.164 14.0983C41.3115 14.0983 40.5246 14.2294 39.8033 14.5573C39.082 14.8196 38.2951 15.2786 37.4426 15.8032L36.1967 13.1802C37.1803 12.5245 38.164 12.0655 39.2787 11.6721C40.3279 11.3442 41.4426 11.1475 42.623 11.1475C44.7869 11.1475 46.4918 11.6721 47.7377 12.7212C48.9836 13.7704 49.5738 15.3442 49.5738 17.3114V21.836C49.5738 22.2294 49.6394 22.5573 49.7705 22.6884C49.9017 22.8196 50.1639 22.9507 50.4918 23.0163V26.3606C50.0984 26.4261 49.7705 26.4917 49.5082 26.4917C49.2459 26.4917 48.9836 26.5573 48.7869 26.5573C48 26.5573 47.4098 26.3606 47.0164 26.0327C46.623 25.7048 46.3607 25.2458 46.2951 24.7212L46.2295 23.9999C45.5738 24.8524 44.7213 25.5081 43.8033 25.9671C42.8197 26.4261 41.8361 26.6229 40.7869 26.6229C39.8033 26.6229 38.8853 26.4261 38.0984 26.0327C37.3115 25.6393 36.6558 25.0491 36.2623 24.3278C35.6721 23.6721 35.4099 22.8852 35.4099 21.9671ZM44.7213 22.6229C44.918 22.4262 45.1148 22.2294 45.2459 22.0327C45.3771 21.836 45.4426 21.5737 45.4426 21.4425V19.9999C44.9836 19.8032 44.5246 19.6721 44 19.6065C43.4754 19.5409 42.9508 19.4753 42.4918 19.4753C41.5082 19.4753 40.7213 19.6721 40.1312 20.0655C39.541 20.4589 39.2131 20.9835 39.2131 21.7048C39.2131 22.0327 39.3443 22.4261 39.541 22.754C39.7377 23.0819 40.0656 23.3442 40.459 23.5409C40.8525 23.7376 41.3115 23.8688 41.8361 23.8688C42.3607 23.8688 42.9508 23.7376 43.4754 23.5409C44 23.2786 44.3935 22.9507 44.7213 22.6229Z" fill="white"/>
<path d="M58.6231 26.6884C57.3116 26.6884 56.1313 26.4917 54.951 26.0327C53.7706 25.6393 52.787 24.9835 51.9346 24.1311L53.3772 21.5081C54.2952 22.2294 55.1477 22.754 56.0001 23.0819C56.8526 23.4098 57.7051 23.6065 58.4919 23.6065C59.2133 23.6065 59.8034 23.4753 60.1969 23.2786C60.5903 23.0163 60.787 22.6884 60.787 22.2294C60.787 21.9016 60.6559 21.5737 60.4592 21.377C60.1969 21.1802 59.869 21.0491 59.41 20.8524C58.951 20.7212 58.4264 20.5245 57.7706 20.3934C56.6559 19.9999 55.7378 19.6721 54.951 19.3442C54.1641 19.0163 53.6395 18.5573 53.246 18.0327C52.8526 17.5081 52.6559 16.8524 52.6559 15.9999C52.6559 15.0163 52.9182 14.1639 53.4428 13.4425C53.9674 12.7212 54.6887 12.1311 55.6067 11.7376C56.5247 11.3442 57.5739 11.1475 58.8198 11.1475C59.869 11.1475 60.9182 11.3442 61.9018 11.6721C62.8854 11.9999 63.7378 12.5245 64.5903 13.2458L62.951 15.8688C62.1641 15.2786 61.4428 14.8196 60.7215 14.5573C60.0001 14.295 59.3444 14.1639 58.6231 14.1639C58.2297 14.1639 57.9018 14.2294 57.5739 14.295C57.246 14.3606 56.9837 14.5573 56.7215 14.754C56.5247 14.9507 56.3936 15.2786 56.3936 15.6721C56.3936 15.9999 56.5247 16.2622 56.7215 16.4589C56.9182 16.6557 57.246 16.8524 57.5739 16.9835C57.9674 17.1147 58.4264 17.3114 59.0821 17.4425C60.2624 17.7704 61.3116 18.1639 62.1641 18.4917C63.0165 18.8196 63.6067 19.2786 64.0657 19.8688C64.4592 20.3934 64.7215 21.1147 64.7215 22.0327C64.7215 23.4753 64.1969 24.6557 63.0821 25.5081C61.9674 26.2294 60.4592 26.6884 58.6231 26.6884Z" fill="white"/>
<path d="M76.5902 25.5735C76.1967 25.7047 75.8033 25.9014 75.3443 26.0326C74.8853 26.2293 74.3607 26.3604 73.8361 26.426C73.3115 26.5572 72.7869 26.5572 72.1967 26.5572C71.4754 26.5572 70.8197 26.426 70.2295 26.1637C69.6394 25.9014 69.1804 25.508 68.7869 24.9834C68.3935 24.4588 68.2623 23.7375 68.2623 22.8195V14.4916H66.2951V11.4096H68.2623V6.55713H72.2623V11.4096H75.4099V14.4916H72.2623V21.508C72.2623 22.0326 72.3935 22.3604 72.7213 22.6227C72.9836 22.8195 73.3115 22.9506 73.7049 22.9506C74.0984 22.9506 74.4918 22.885 74.8853 22.7539C75.2787 22.6227 75.6066 22.4916 75.8033 22.426L76.5902 25.5735Z" fill="white"/>
<path d="M85.3771 26.6885C84.1312 26.6885 83.0164 26.4918 82.0328 26.0983C81.0492 25.7049 80.1967 25.1147 79.541 24.459C78.8197 23.7377 78.2951 22.9508 77.9672 22.0328C77.5738 21.1147 77.3771 20.1311 77.3771 19.1475C77.3771 17.7049 77.7049 16.3934 78.3607 15.2131C79.0164 14.0328 79.9345 13.1147 81.1148 12.3934C82.2951 11.6721 83.7377 11.3442 85.3771 11.3442C87.0164 11.3442 88.459 11.6721 89.6394 12.3934C90.8197 13.1147 91.7377 14.0328 92.3279 15.2131C92.9836 16.3934 93.2459 17.6393 93.2459 18.9508C93.2459 19.1475 93.2459 19.4098 93.2459 19.6721C93.2459 19.9344 93.1804 20.1311 93.1804 20.2623H81.6394C81.7049 20.9836 81.9017 21.6393 82.2951 22.1639C82.6886 22.6885 83.1476 23.0819 83.6722 23.4098C84.2623 23.6721 84.8525 23.8688 85.4427 23.8688C86.164 23.8688 86.8853 23.6721 87.541 23.2787C88.1967 22.8852 88.6558 22.4262 88.9181 21.7705L92.3279 22.7541C91.9345 23.541 91.4099 24.1967 90.7541 24.7869C90.0984 25.377 89.2459 25.836 88.3279 26.1639C87.4754 26.4918 86.4918 26.6885 85.3771 26.6885ZM81.5082 17.6393H89.1148C89.0492 16.918 88.8525 16.3278 88.459 15.8033C88.1312 15.2787 87.6722 14.8852 87.1476 14.5574C86.623 14.2295 85.9672 14.0983 85.3115 14.0983C84.6558 14.0983 84.0656 14.2295 83.4754 14.5574C82.9508 14.8852 82.4918 15.2787 82.164 15.8033C81.8361 16.3278 81.6394 16.918 81.5082 17.6393Z" fill="white"/>
<path d="M104.787 14.7539C103.607 14.7539 102.557 15.0162 101.639 15.4097C100.721 15.8031 100.066 16.4588 99.6721 17.2457V26.3605H95.6721V11.4097H99.3443V14.426C99.8688 13.3769 100.59 12.59 101.377 11.9998C102.23 11.4097 103.082 11.0818 104 11.0818C104.197 11.0818 104.393 11.0818 104.459 11.0818C104.59 11.0818 104.656 11.0818 104.787 11.0818V14.7539Z" fill="white"/>
<path d="M106.885 15.9342C106.885 14.6883 107.082 13.508 107.541 12.2621C108 11.0817 108.656 9.96698 109.508 8.98338C110.361 7.99977 111.41 7.21289 112.656 6.62272C113.902 6.03256 115.344 5.77026 116.918 5.77026C118.82 5.77026 120.459 6.16371 121.836 7.01617C123.213 7.86862 124.262 8.9178 124.918 10.2293L121.705 12.4588C121.377 11.6719 120.918 11.0817 120.393 10.6227C119.869 10.1637 119.279 9.90141 118.623 9.70469C117.967 9.50797 117.377 9.44239 116.787 9.44239C115.803 9.44239 114.951 9.63912 114.23 10.0326C113.508 10.426 112.918 10.9506 112.459 11.5408C112 12.1965 111.607 12.8522 111.344 13.6391C111.082 14.426 111.016 15.2129 111.016 15.9998C111.016 16.8522 111.148 17.7047 111.475 18.5571C111.738 19.344 112.131 20.0653 112.656 20.7211C113.18 21.3768 113.771 21.8358 114.492 22.2293C115.213 22.6227 116 22.7539 116.918 22.7539C117.508 22.7539 118.164 22.6227 118.754 22.426C119.41 22.2293 120 21.9014 120.525 21.4424C121.049 20.9834 121.508 20.3932 121.836 19.6719L125.246 21.6391C124.852 22.6227 124.197 23.4752 123.279 24.1965C122.361 24.9178 121.311 25.4424 120.197 25.8358C119.082 26.2293 117.902 26.426 116.787 26.426C115.344 26.426 113.967 26.0981 112.787 25.508C111.541 24.9178 110.492 24.0653 109.639 23.0817C108.787 22.0981 108.066 20.9178 107.607 19.6719C107.148 18.5571 106.885 17.2457 106.885 15.9342Z" fill="white"/>
<path d="M127.082 21.9671C127.082 20.9835 127.344 20.1311 127.934 19.4098C128.525 18.6884 129.246 18.0983 130.23 17.7048C131.213 17.3114 132.328 17.0491 133.574 17.0491C134.23 17.0491 134.885 17.1147 135.475 17.1802C136.131 17.3114 136.656 17.4425 137.18 17.6393V16.918C137.18 15.9999 136.918 15.2786 136.328 14.8196C135.803 14.3606 134.951 14.0983 133.836 14.0983C132.984 14.0983 132.197 14.2294 131.475 14.5573C130.754 14.8196 129.967 15.2786 129.115 15.8032L127.869 13.1802C128.852 12.5245 129.836 12.0655 130.951 11.6721C132 11.3442 133.115 11.1475 134.295 11.1475C136.459 11.1475 138.164 11.6721 139.41 12.7212C140.656 13.7704 141.246 15.3442 141.246 17.3114V21.836C141.246 22.2294 141.311 22.5573 141.443 22.6884C141.574 22.8196 141.836 22.9507 142.164 23.0163V26.3606C141.77 26.4261 141.443 26.4917 141.18 26.4917C140.918 26.4917 140.656 26.5573 140.459 26.5573C139.672 26.5573 139.082 26.3606 138.689 26.0327C138.295 25.7048 138.033 25.2458 137.967 24.7212L137.902 23.9999C137.246 24.8524 136.393 25.5081 135.475 25.9671C134.492 26.4261 133.508 26.6229 132.459 26.6229C131.475 26.6229 130.557 26.4261 129.77 26.0327C128.984 25.6393 128.328 25.0491 127.934 24.3278C127.279 23.6721 127.082 22.8852 127.082 21.9671ZM136.393 22.6229C136.59 22.4262 136.787 22.2294 136.918 22.0327C137.049 21.836 137.115 21.5737 137.115 21.4425V19.9999C136.656 19.8032 136.197 19.6721 135.672 19.6065C135.148 19.5409 134.623 19.4753 134.164 19.4753C133.18 19.4753 132.393 19.6721 131.803 20.0655C131.213 20.4589 130.885 20.9835 130.885 21.7048C130.885 22.0327 131.016 22.4261 131.213 22.754C131.41 23.0819 131.738 23.3442 132.131 23.5409C132.525 23.7376 132.984 23.8688 133.508 23.8688C134.033 23.8688 134.623 23.7376 135.148 23.5409C135.607 23.2786 136.066 22.9507 136.393 22.6229Z" fill="white"/>
<path d="M168.328 26.3606H164.262V18.0327C164.262 16.918 164.066 16.0655 163.672 15.5409C163.279 15.0163 162.754 14.754 162.033 14.754C161.311 14.754 160.59 15.0163 160 15.6065C159.344 16.1311 158.885 16.8524 158.557 17.7704V26.4262H154.557V18.0327C154.557 16.8524 154.361 16.0655 153.967 15.5409C153.574 15.0163 153.049 14.754 152.328 14.754C151.607 14.754 150.951 15.0163 150.295 15.5409C149.639 16.0655 149.18 16.7868 148.852 17.6393V26.295H144.852V11.4098H148.459V14.1639C149.049 13.2458 149.77 12.4589 150.754 11.9343C151.738 11.4098 152.787 11.1475 154.098 11.1475C155.344 11.1475 156.328 11.4753 157.049 12.0655C157.77 12.6557 158.164 13.377 158.361 14.2294C158.951 13.2458 159.738 12.4589 160.656 11.9343C161.574 11.4098 162.689 11.1475 163.869 11.1475C164.787 11.1475 165.574 11.3442 166.164 11.6721C166.754 11.9999 167.213 12.4589 167.541 13.0491C167.869 13.6393 168.066 14.2294 168.197 14.9507C168.328 15.6065 168.393 16.3278 168.393 17.0491V26.3606H168.328Z" fill="white"/>
<path d="M180.852 26.6885C179.672 26.6885 178.623 26.4262 177.77 25.9016C176.918 25.377 176.197 24.7213 175.738 23.8688V32.9836H171.738V11.541H175.279V14.0983C175.803 13.2459 176.525 12.5246 177.443 12.0655C178.295 11.541 179.344 11.3442 180.459 11.3442C181.508 11.3442 182.426 11.541 183.279 11.9344C184.131 12.3278 184.852 12.918 185.508 13.6393C186.164 14.3606 186.623 15.1475 186.951 16.1311C187.279 17.0492 187.475 18.0328 187.475 19.0819C187.475 20.5246 187.213 21.836 186.623 23.0164C186.033 24.1967 185.311 25.1147 184.328 25.7705C183.279 26.3606 182.098 26.6885 180.852 26.6885ZM179.475 23.2131C180.066 23.2131 180.59 23.0819 181.049 22.8852C181.508 22.6229 181.902 22.2951 182.23 21.9016C182.557 21.5082 182.82 21.0492 183.016 20.5246C183.213 20 183.279 19.4754 183.279 18.8852C183.279 18.2951 183.148 17.7049 182.951 17.1803C182.754 16.6557 182.492 16.1967 182.098 15.8033C181.705 15.4098 181.311 15.0819 180.787 14.8852C180.328 14.6885 179.738 14.5574 179.213 14.5574C178.82 14.5574 178.492 14.6229 178.164 14.7541C177.836 14.8852 177.443 15.0164 177.115 15.2787C176.787 15.4754 176.459 15.7377 176.262 16C176 16.2623 175.803 16.5901 175.738 16.918V20.3278C176 20.8524 176.262 21.3115 176.656 21.7705C177.049 22.2295 177.508 22.5574 177.967 22.8196C178.426 23.1475 178.951 23.2131 179.475 23.2131Z" fill="white"/>
<path d="M195.475 26.4262C194.164 26.4262 192.984 26.2295 191.803 25.7705C190.623 25.377 189.574 24.7213 188.787 23.9344L190.229 21.377C191.148 22.0983 192 22.6229 192.852 22.9508C193.705 23.2787 194.557 23.4754 195.344 23.4754C196.066 23.4754 196.59 23.3442 197.049 23.1475C197.508 22.8852 197.705 22.5573 197.705 22.0328C197.705 21.7049 197.574 21.377 197.377 21.1803C197.115 20.9836 196.787 20.8524 196.328 20.6557C195.869 20.5246 195.344 20.3278 194.689 20.1311C193.574 19.8032 192.656 19.4754 191.934 19.0819C191.213 18.7541 190.623 18.295 190.229 17.7705C189.836 17.2459 189.639 16.5901 189.639 15.8032C189.639 14.8196 189.902 13.9672 190.426 13.2459C190.951 12.5246 191.672 12 192.59 11.6065C193.508 11.2131 194.557 11.0164 195.803 11.0164C196.852 11.0164 197.836 11.1475 198.82 11.4754C199.803 11.8032 200.656 12.3278 201.443 13.1147L199.869 15.6065C199.082 15.0164 198.361 14.5573 197.705 14.295C197.049 14.0328 196.328 13.9016 195.607 13.9016C195.213 13.9016 194.885 13.9672 194.492 14.0327C194.164 14.0983 193.836 14.295 193.639 14.4918C193.443 14.6885 193.311 15.0164 193.311 15.3442C193.311 15.6721 193.443 16 193.639 16.1311C193.836 16.3278 194.164 16.459 194.557 16.6557C194.951 16.7868 195.41 16.9836 196.066 17.1147C197.311 17.4426 198.295 17.836 199.148 18.1639C200 18.4918 200.59 18.9508 200.984 19.4754C201.377 20 201.639 20.7213 201.639 21.5737C201.639 23.0819 201.115 24.1967 200 25.0491C198.754 26.0327 197.311 26.4262 195.475 26.4262Z" fill="white"/>
<path d="M33.1803 3.26221C33.1803 1.60536 31.8372 0.262207 30.1803 0.262207H3C1.34315 0.262207 0 1.60535 0 3.26221V36.6065C0 38.2633 1.34315 39.6065 3 39.6065H30.1803C31.8372 39.6065 33.1803 38.2633 33.1803 36.6065V3.26221Z" fill="url(#paint0_linear_0_4060)"/>
<path d="M28.918 32.459H4.26227V35.541H28.918V32.459Z" fill="#121112"/>
<path d="M22.6231 26.8852V13.9671L17.705 23.5409H15.41L10.4264 13.9671V26.8852H6.36078V6.81958H10.7542L16.5247 18.0327L22.2952 6.81958H26.6231V26.8852H22.6231Z" fill="#121112"/>
</g>
<defs>
<linearGradient id="paint0_linear_0_4060" x1="-12.5018" y1="-21.9987" x2="42.9976" y2="55.5017" gradientUnits="userSpaceOnUse">
<stop stop-color="#6CAFFF"/>
<stop offset="0.276042" stop-color="#FF7BAD"/>
<stop offset="0.635417" stop-color="#FFC940"/>
<stop offset="1" stop-color="#FFC940"/>
</linearGradient>
<clipPath id="clip0_0_4060">
<rect width="201.967" height="40" fill="white"/>
</clipPath>
</defs>
</svg>
