<svg width="1440" height="577" viewBox="0 0 1440 577" fill="none" xmlns="http://www.w3.org/2000/svg">
<path fill-rule="evenodd" clip-rule="evenodd" d="M1899.55 531L216 -441L190 -395.967L1873.55 576.033L1899.55 531ZM232.948 -398.163C229.372 -393.761 224.105 -391.999 217.981 -395.535C211.745 -399.135 210.571 -405.614 213.931 -411.433C217.707 -417.973 224.169 -419.822 230.322 -416.27C235.698 -413.166 237.061 -408.167 235.555 -403.383L230.227 -404.907C231.063 -408.082 230.375 -410.475 227.853 -411.931C224.86 -413.659 221.569 -412.566 219.281 -408.603C217.057 -404.751 217.678 -401.474 220.726 -399.714C223.497 -398.114 226.334 -398.804 228.506 -401.541L232.948 -398.163ZM239.941 -382.856C233.733 -386.44 231.897 -393.116 235.497 -399.352C239.097 -405.587 245.797 -407.335 252.005 -403.751C258.24 -400.151 260.048 -393.491 256.448 -387.256C252.848 -381.02 246.176 -379.256 239.941 -382.856ZM240.735 -396.328C238.607 -392.642 239.166 -389.067 242.437 -387.179C245.734 -385.275 249.11 -386.578 251.238 -390.264C253.366 -393.95 252.806 -397.524 249.509 -399.428C246.238 -401.316 242.863 -400.014 240.735 -396.328ZM278.567 -387.972L283.306 -385.236L271.626 -365.006L265.64 -368.462L265.792 -383.893L265.851 -386.298L258.075 -372.83L253.364 -375.55L265.044 -395.78L271.002 -392.34L270.767 -376.957L270.695 -374.337L278.567 -387.972ZM300.624 -375.238L305.363 -372.502L293.683 -352.271L287.697 -355.727L287.849 -371.159L287.907 -373.564L280.131 -360.095L275.42 -362.815L287.1 -383.046L293.058 -379.606L292.823 -364.222L292.752 -361.603L300.624 -375.238ZM309.157 -370.311L324.011 -361.735L321.563 -357.495L311.808 -363.127L309.584 -359.275L317.371 -354.779L315.131 -350.899L307.344 -355.395L305.024 -351.377L315.25 -345.473L312.802 -341.233L297.477 -350.081L309.157 -370.311ZM338.684 -337.116C335.108 -332.714 329.841 -330.952 323.717 -334.488C317.481 -338.088 316.308 -344.567 319.668 -350.386C323.444 -356.927 329.906 -358.775 336.058 -355.223C341.434 -352.119 342.797 -347.12 341.291 -342.336L335.964 -343.86C336.799 -347.036 336.112 -349.428 333.59 -350.884C330.597 -352.612 327.305 -351.519 325.017 -347.556C322.793 -343.704 323.414 -340.427 326.462 -338.667C329.234 -337.067 332.071 -337.757 334.242 -340.494L338.684 -337.116ZM340.845 -325.042L350.077 -341.033L343.481 -344.841L345.929 -349.081L364.192 -338.537L361.744 -334.297L355.148 -338.105L345.916 -322.114L340.845 -325.042ZM370.731 -307.344C365.964 -310.096 362.639 -314.64 367.007 -322.205L373.375 -333.235L378.446 -330.307L372.014 -319.166C370.366 -316.312 370.052 -313.464 373.322 -311.576C376.038 -310.008 378.368 -311.101 380.272 -314.398L386.704 -325.539L391.804 -322.595L385.436 -311.565C381.1 -304.055 375.553 -304.56 370.731 -307.344ZM389.731 -305.76C390.028 -302.817 391.4 -300.842 393.894 -299.402C396.666 -297.802 398.181 -298.443 398.821 -299.551C399.445 -300.632 398.941 -301.551 397.149 -302.992L393.479 -305.85C390.37 -308.273 388.986 -311.252 391.05 -314.827C393.434 -318.956 398.618 -319.104 403.246 -316.432C406.489 -314.56 409.111 -311.679 409.629 -307.648L404.866 -306.629C404.397 -309.338 402.795 -311.298 400.882 -312.402C398.776 -313.618 396.879 -313.531 396.159 -312.284C395.535 -311.203 395.999 -310.344 397.562 -309.146L400.754 -306.675C404.413 -303.861 406.138 -300.832 404.01 -297.147C401.578 -292.934 396.642 -292.385 391.376 -295.425C387.164 -297.857 385.072 -300.505 384.644 -305.076L389.731 -305.76ZM444.258 -276.163C440.682 -271.761 435.415 -269.999 429.291 -273.535C423.055 -277.135 421.882 -283.614 425.242 -289.433C429.018 -295.973 435.48 -297.822 441.632 -294.27C447.008 -291.166 448.371 -286.167 446.865 -281.383L441.538 -282.907C442.373 -286.082 441.685 -288.475 439.164 -289.931C436.171 -291.659 432.879 -290.566 430.591 -286.603C428.367 -282.751 428.988 -279.474 432.036 -277.714C434.807 -276.114 437.644 -276.804 439.816 -279.541L444.258 -276.163ZM451.251 -260.856C445.043 -264.44 443.207 -271.116 446.807 -277.352C450.407 -283.587 457.107 -285.335 463.315 -281.751C469.55 -278.151 471.358 -271.491 467.758 -265.256C464.158 -259.02 457.486 -257.256 451.251 -260.856ZM452.045 -274.328C449.917 -270.642 450.477 -267.067 453.747 -265.179C457.045 -263.275 460.42 -264.578 462.548 -268.264C464.676 -271.95 464.117 -275.524 460.819 -277.428C457.549 -279.316 454.173 -278.014 452.045 -274.328ZM489.878 -265.972L494.616 -263.236L482.936 -243.006L476.95 -246.462L477.103 -261.893L477.161 -264.298L469.385 -250.83L464.674 -253.55L476.354 -273.78L482.312 -270.34L482.077 -254.957L482.006 -252.337L489.878 -265.972ZM511.934 -253.238L516.673 -250.502L504.993 -230.271L499.007 -233.727L499.159 -249.159L499.217 -251.564L491.441 -238.095L486.73 -240.815L498.41 -261.046L504.369 -257.606L504.133 -242.222L504.062 -239.603L511.934 -253.238ZM520.467 -248.311L535.321 -239.735L532.873 -235.495L523.118 -241.127L520.894 -237.275L528.681 -232.779L526.441 -228.899L518.654 -233.395L516.334 -229.377L526.56 -223.473L524.112 -219.233L508.787 -228.081L520.467 -248.311ZM549.994 -215.116C546.419 -210.714 541.152 -208.952 535.027 -212.488C528.792 -216.088 527.618 -222.567 530.978 -228.386C534.754 -234.927 541.216 -236.775 547.368 -233.223C552.744 -230.119 554.107 -225.12 552.602 -220.336L547.274 -221.86C548.11 -225.036 547.422 -227.428 544.9 -228.884C541.907 -230.612 538.616 -229.519 536.328 -225.556C534.104 -221.704 534.724 -218.427 537.772 -216.667C540.544 -215.067 543.381 -215.757 545.552 -218.494L549.994 -215.116ZM552.155 -203.042L561.387 -219.033L554.791 -222.841L557.239 -227.081L575.502 -216.537L573.054 -212.297L566.458 -216.105L557.226 -200.114L552.155 -203.042ZM582.041 -185.344C577.275 -188.096 573.949 -192.64 578.317 -200.205L584.685 -211.235L589.756 -208.307L583.324 -197.167C581.676 -194.312 581.362 -191.464 584.632 -189.576C587.348 -188.008 589.679 -189.101 591.583 -192.399L598.015 -203.539L603.114 -200.595L596.746 -189.565C592.41 -182.055 586.863 -182.56 582.041 -185.344ZM601.041 -183.76C601.338 -180.817 602.71 -178.842 605.205 -177.402C607.976 -175.802 609.491 -176.443 610.131 -177.551C610.755 -178.632 610.251 -179.551 608.459 -180.992L604.789 -183.85C601.68 -186.273 600.296 -189.252 602.36 -192.827C604.744 -196.957 609.928 -197.104 614.556 -194.432C617.799 -192.56 620.421 -189.679 620.939 -185.648L616.176 -184.629C615.708 -187.338 614.105 -189.298 612.193 -190.402C610.086 -191.618 608.189 -191.531 607.469 -190.284C606.845 -189.203 607.309 -188.344 608.872 -187.146L612.064 -184.675C615.723 -181.861 617.448 -178.832 615.32 -175.147C612.888 -170.934 607.952 -170.385 602.686 -173.425C598.474 -175.857 596.382 -178.505 595.954 -183.076L601.041 -183.76ZM640.601 -151.535C646.725 -147.999 651.992 -149.761 655.568 -154.163L651.126 -157.541C648.955 -154.804 646.118 -154.114 643.346 -155.714C640.298 -157.474 639.677 -160.751 641.901 -164.603C644.189 -168.566 647.481 -169.659 650.474 -167.931C652.996 -166.475 653.683 -164.082 652.848 -160.907L658.176 -159.383C659.681 -164.167 658.318 -169.166 652.942 -172.27C646.79 -175.822 640.328 -173.973 636.552 -167.433C633.192 -161.614 634.366 -155.135 640.601 -151.535ZM658.117 -155.352C654.517 -149.116 656.353 -142.44 662.561 -138.856C668.796 -135.256 675.468 -137.02 679.068 -143.256C682.668 -149.491 680.86 -156.151 674.625 -159.751C668.417 -163.335 661.717 -161.587 658.117 -155.352ZM665.057 -143.179C661.787 -145.067 661.227 -148.642 663.355 -152.328C665.483 -156.014 668.859 -157.316 672.129 -155.428C675.427 -153.524 675.986 -149.95 673.858 -146.264C671.73 -142.578 668.355 -141.275 665.057 -143.179ZM705.927 -141.236L701.188 -143.972L693.316 -130.337L693.387 -132.957L693.622 -148.34L687.664 -151.78L675.984 -131.55L680.695 -128.83L688.471 -142.298L688.413 -139.893L688.261 -124.462L694.247 -121.006L705.927 -141.236ZM727.983 -128.502L723.244 -131.238L715.372 -117.603L715.443 -120.222L715.679 -135.606L709.72 -139.046L698.04 -118.815L702.752 -116.095L710.528 -129.564L710.469 -127.159L710.317 -111.727L716.303 -108.271L727.983 -128.502ZM746.631 -117.735L731.777 -126.311L720.097 -106.081L735.422 -97.233L737.87 -101.473L727.644 -107.377L729.964 -111.395L737.751 -106.899L739.991 -110.779L732.204 -115.275L734.428 -119.127L744.183 -113.495L746.631 -117.735ZM746.337 -90.4878C752.462 -86.9518 757.729 -88.7145 761.305 -93.1162L756.862 -96.4939C754.691 -93.7569 751.854 -93.067 749.083 -94.667C746.034 -96.427 745.414 -99.7043 747.638 -103.556C749.926 -107.519 753.217 -108.612 756.21 -106.884C758.732 -105.428 759.42 -103.036 758.584 -99.86L763.912 -98.3359C765.418 -103.12 764.055 -108.119 758.678 -111.223C752.526 -114.775 746.064 -112.927 742.288 -106.386C738.928 -100.567 740.102 -94.0878 746.337 -90.4878ZM772.697 -97.0327L763.465 -81.0425L768.536 -78.1145L777.768 -94.1048L784.364 -90.2968L786.812 -94.5368L768.549 -105.081L766.101 -100.841L772.697 -97.0327ZM789.627 -78.2054C785.259 -70.6398 788.585 -66.0962 793.351 -63.3442C798.173 -60.5602 803.72 -60.0552 808.056 -67.5654L814.424 -78.5951L809.325 -81.5391L802.893 -70.3985C800.989 -67.1007 798.658 -66.0076 795.942 -67.5756C792.672 -69.4636 792.986 -72.3121 794.634 -75.1665L801.066 -86.3071L795.995 -89.2351L789.627 -78.2054ZM816.515 -55.4025C814.021 -56.8425 812.648 -58.8173 812.352 -61.7597L807.264 -61.0759C807.692 -56.5055 809.784 -53.8567 813.996 -51.4247C819.262 -48.3847 824.198 -48.9343 826.63 -53.1466C828.758 -56.8324 827.033 -59.8606 823.374 -62.6752L820.182 -65.1463C818.619 -66.344 818.155 -67.2034 818.779 -68.2842C819.499 -69.5312 821.397 -69.6181 823.503 -68.4021C825.415 -67.2981 827.018 -65.3381 827.486 -62.6291L832.249 -63.6478C831.732 -67.6787 829.109 -70.5601 825.866 -72.4321C821.238 -75.1041 816.054 -74.9565 813.67 -70.8273C811.606 -67.2524 812.99 -64.2733 816.099 -61.8502L819.77 -58.9919C821.561 -57.5511 822.065 -56.632 821.441 -55.5512C820.801 -54.4427 819.286 -53.8025 816.515 -55.4025ZM866.879 -32.1631C863.303 -27.7613 858.036 -25.9987 851.911 -29.5347C845.676 -33.1347 844.502 -39.6136 847.862 -45.4333C851.638 -51.9735 858.1 -53.8221 864.252 -50.2701C869.628 -47.1661 870.991 -42.1669 869.486 -37.3828L864.158 -38.9069C864.994 -42.0824 864.306 -44.475 861.784 -45.9309C858.791 -47.6589 855.5 -46.5662 853.212 -42.6033C850.988 -38.7512 851.608 -35.4739 854.656 -33.7139C857.428 -32.1139 860.265 -32.8038 862.436 -35.5408L866.879 -32.1631ZM873.871 -16.8561C867.663 -20.44 865.828 -27.1164 869.428 -33.3518C873.028 -39.5872 879.727 -41.3355 885.935 -37.7515C892.17 -34.1515 893.978 -27.4912 890.378 -21.2558C886.778 -15.0204 880.106 -13.2561 873.871 -16.8561ZM874.665 -30.3278C872.537 -26.642 873.097 -23.0673 876.367 -21.1793C879.665 -19.2752 883.04 -20.578 885.168 -24.2638C887.296 -27.9496 886.737 -31.5243 883.439 -33.4283C880.169 -35.3163 876.793 -34.0136 874.665 -30.3278ZM912.498 -21.9721L917.237 -19.2361L905.557 0.994272L899.571 -2.46172L899.723 -17.8931L899.781 -20.2982L892.005 -6.82973L887.294 -9.54973L898.974 -29.7801L904.932 -26.3401L904.697 -10.9567L904.626 -8.33737L912.498 -21.9721ZM934.554 -9.2377L939.293 -6.5017L927.613 13.7286L921.627 10.2727L921.779 -5.15875L921.838 -7.56378L914.062 5.90464L909.351 3.18464L921.031 -17.0457L926.989 -13.6057L926.754 1.77766L926.682 4.39701L934.554 -9.2377ZM943.087 -4.31134L957.941 4.26465L955.493 8.50471L945.738 2.87272L943.514 6.7248L951.302 11.2208L949.062 15.1006L941.274 10.6046L938.954 14.623L949.18 20.5269L946.732 24.767L931.407 15.919L943.087 -4.31134ZM972.615 28.8838C969.039 33.2855 963.772 35.0482 957.647 31.5122C951.412 27.9122 950.238 21.4333 953.598 15.6136C957.374 9.07337 963.836 7.22473 969.988 10.7767C975.365 13.8807 976.728 18.88 975.222 23.6641L969.894 22.14C970.73 18.9644 970.042 16.5719 967.52 15.1159C964.527 13.3879 961.236 14.4807 958.948 18.4436C956.724 22.2957 957.344 25.573 960.393 27.333C963.164 28.933 966.001 28.2431 968.172 25.5061L972.615 28.8838ZM974.775 40.9575L984.007 24.9672L977.411 21.1592L979.859 16.9192L998.122 27.4632L995.674 31.7032L989.079 27.8952L979.847 43.8855L974.775 40.9575ZM1004.66 58.6558C999.895 55.9038 996.569 51.3602 1000.94 43.7946L1007.31 32.7649L1012.38 35.6929L1005.94 46.8334C1004.3 49.6879 1003.98 52.5363 1007.25 54.4243C1009.97 55.9923 1012.3 54.8993 1014.2 51.6015L1020.63 40.4609L1025.73 43.4049L1019.37 54.4346C1015.03 61.9448 1009.48 61.4398 1004.66 58.6558ZM1023.66 60.2402C1023.96 63.1827 1025.33 65.1575 1027.82 66.5975C1030.6 68.1975 1032.11 67.5573 1032.75 66.4488C1033.38 65.368 1032.87 64.4489 1031.08 63.008L1027.41 60.1498C1024.3 57.7267 1022.92 54.7476 1024.98 51.1727C1027.36 47.0434 1032.55 46.8958 1037.18 49.5679C1040.42 51.4398 1043.04 54.3212 1043.56 58.3522L1038.8 59.3709C1038.33 56.6619 1036.73 54.7019 1034.81 53.5979C1032.71 52.3819 1030.81 52.4687 1030.09 53.7158C1029.47 54.7966 1029.93 55.656 1031.49 56.8537L1034.68 59.3248C1038.34 62.1394 1040.07 65.1676 1037.94 68.8534C1035.51 73.0657 1030.57 73.6153 1025.31 70.5753C1021.09 68.1433 1019 65.4945 1018.57 60.9241L1023.66 60.2402ZM1063.22 92.4653C1069.35 96.0013 1074.61 94.2386 1078.19 89.8369L1073.75 86.4592C1071.57 89.1962 1068.74 89.8861 1065.97 88.2861C1062.92 86.5261 1062.3 83.2488 1064.52 79.3967C1066.81 75.4338 1070.1 74.341 1073.09 76.069C1075.62 77.525 1076.3 79.9175 1075.47 83.0931L1080.8 84.6172C1082.3 79.8331 1080.94 74.8338 1075.56 71.7298C1069.41 68.1778 1062.95 70.0265 1059.17 76.5667C1055.81 82.3864 1056.99 88.8653 1063.22 92.4653ZM1080.74 88.6482C1077.14 94.8836 1078.97 101.56 1085.18 105.144C1091.42 108.744 1098.09 106.98 1101.69 100.744C1105.29 94.5088 1103.48 87.8484 1097.25 84.2485C1091.04 80.6645 1084.34 82.4128 1080.74 88.6482ZM1087.68 100.821C1084.41 98.9327 1083.85 95.358 1085.98 91.6722C1088.1 87.9864 1091.48 86.6837 1094.75 88.5717C1098.05 90.4756 1098.61 94.0504 1096.48 97.7362C1094.35 101.422 1090.98 102.725 1087.68 100.821ZM1128.55 102.764L1123.81 100.028L1115.94 113.663L1116.01 111.043L1116.24 95.6599L1110.28 92.2199L1098.6 112.45L1103.32 115.17L1111.09 101.702L1111.03 104.107L1110.88 119.538L1116.87 122.994L1128.55 102.764ZM1150.6 115.498L1145.86 112.762L1137.99 126.397L1138.06 123.778L1138.3 108.394L1132.34 104.954L1120.66 125.185L1125.37 127.905L1133.15 114.436L1133.09 116.841L1132.94 132.273L1138.92 135.729L1150.6 115.498ZM1169.25 126.265L1154.4 117.689L1142.72 137.919L1158.04 146.767L1160.49 142.527L1150.26 136.623L1152.58 132.605L1160.37 137.101L1162.61 133.221L1154.82 128.725L1157.05 124.873L1166.8 130.505L1169.25 126.265ZM1168.96 153.512C1175.08 157.048 1180.35 155.286 1183.92 150.884L1179.48 147.506C1177.31 150.243 1174.47 150.933 1171.7 149.333C1168.65 147.573 1168.03 144.296 1170.26 140.444C1172.55 136.481 1175.84 135.388 1178.83 137.116C1181.35 138.572 1182.04 140.964 1181.2 144.14L1186.53 145.664C1188.04 140.88 1186.67 135.881 1181.3 132.777C1175.15 129.225 1168.68 131.073 1164.91 137.614C1161.55 143.433 1162.72 149.912 1168.96 153.512ZM1195.32 146.967L1186.09 162.957L1191.16 165.886L1200.39 149.895L1206.98 153.703L1209.43 149.463L1191.17 138.919L1188.72 143.159L1195.32 146.967ZM1212.25 165.795C1207.88 173.36 1211.2 177.904 1215.97 180.656C1220.79 183.44 1226.34 183.945 1230.68 176.435L1237.04 165.405L1231.95 162.461L1225.51 173.601C1223.61 176.899 1221.28 177.992 1218.56 176.424C1215.29 174.536 1215.61 171.688 1217.25 168.833L1223.69 157.693L1218.62 154.765L1212.25 165.795ZM1239.14 188.598C1236.64 187.158 1235.27 185.183 1234.97 182.24L1229.88 182.924C1230.31 187.494 1232.4 190.143 1236.62 192.575C1241.88 195.615 1246.82 195.066 1249.25 190.853C1251.38 187.168 1249.65 184.139 1245.99 181.325L1242.8 178.854C1241.24 177.656 1240.78 176.797 1241.4 175.716C1242.12 174.469 1244.02 174.382 1246.12 175.598C1248.04 176.702 1249.64 178.662 1250.11 181.371L1254.87 180.352C1254.35 176.321 1251.73 173.44 1248.49 171.568C1243.86 168.896 1238.67 169.043 1236.29 173.173C1234.23 176.748 1235.61 179.727 1238.72 182.15L1242.39 185.008C1244.18 186.449 1244.69 187.368 1244.06 188.449C1243.42 189.557 1241.91 190.197 1239.14 188.598ZM1289.5 211.837C1285.92 216.239 1280.66 218.001 1274.53 214.465C1268.3 210.865 1267.12 204.386 1270.48 198.567C1274.26 192.026 1280.72 190.178 1286.87 193.73C1292.25 196.834 1293.61 201.833 1292.11 206.617L1286.78 205.093C1287.61 201.917 1286.93 199.525 1284.4 198.069C1281.41 196.341 1278.12 197.434 1275.83 201.397C1273.61 205.249 1274.23 208.526 1277.28 210.286C1280.05 211.886 1282.89 211.196 1285.06 208.459L1289.5 211.837ZM1296.49 227.144C1290.28 223.56 1288.45 216.884 1292.05 210.648C1295.65 204.413 1302.35 202.664 1308.56 206.248C1314.79 209.848 1316.6 216.509 1313 222.744C1309.4 228.98 1302.73 230.744 1296.49 227.144ZM1297.29 213.672C1295.16 217.358 1295.72 220.933 1298.99 222.821C1302.29 224.725 1305.66 223.422 1307.79 219.736C1309.92 216.05 1309.36 212.476 1306.06 210.572C1302.79 208.684 1299.41 209.986 1297.29 213.672ZM1335.12 222.028L1339.86 224.764L1328.18 244.994L1322.19 241.538L1322.34 226.107L1322.4 223.702L1314.63 237.17L1309.91 234.45L1321.59 214.22L1327.55 217.66L1327.32 233.043L1327.25 235.663L1335.12 222.028ZM1357.17 234.762L1361.91 237.498L1350.23 257.729L1344.25 254.273L1344.4 238.841L1344.46 236.436L1336.68 249.905L1331.97 247.185L1343.65 226.954L1349.61 230.394L1349.37 245.778L1349.3 248.397L1357.17 234.762ZM1365.71 239.689L1380.56 248.265L1378.11 252.505L1368.36 246.873L1366.13 250.725L1373.92 255.221L1371.68 259.101L1363.89 254.605L1361.57 258.623L1371.8 264.527L1369.35 268.767L1354.03 259.919L1365.71 239.689ZM1395.24 272.884C1391.66 277.285 1386.39 279.048 1380.27 275.512C1374.03 271.912 1372.86 265.433 1376.22 259.614C1379.99 253.073 1386.46 251.225 1392.61 254.777C1397.99 257.881 1399.35 262.88 1397.84 267.664L1392.51 266.14C1393.35 262.964 1392.66 260.572 1390.14 259.116C1387.15 257.388 1383.86 258.481 1381.57 262.444C1379.34 266.296 1379.96 269.573 1383.01 271.333C1385.78 272.933 1388.62 272.243 1390.79 269.506L1395.24 272.884ZM1397.4 284.957L1406.63 268.967L1400.03 265.159L1402.48 260.919L1420.74 271.463L1418.29 275.703L1411.7 271.895L1402.47 287.885L1397.4 284.957ZM1427.28 302.656C1422.52 299.904 1419.19 295.36 1423.56 287.795L1429.93 276.765L1435 279.693L1428.56 290.833C1426.92 293.688 1426.6 296.536 1429.87 298.424C1432.59 299.992 1434.92 298.899 1436.82 295.601L1443.26 284.461L1448.35 287.405L1441.99 298.435C1437.65 305.945 1432.1 305.44 1427.28 302.656ZM1446.28 304.24C1446.58 307.183 1447.95 309.157 1450.45 310.598C1453.22 312.197 1454.73 311.557 1455.37 310.449C1456 309.368 1455.49 308.449 1453.7 307.008L1450.03 304.15C1446.92 301.727 1445.54 298.748 1447.6 295.173C1449.98 291.043 1455.17 290.896 1459.8 293.568C1463.04 295.44 1465.66 298.321 1466.18 302.352L1461.42 303.371C1460.95 300.662 1459.35 298.702 1457.43 297.598C1455.33 296.382 1453.43 296.469 1452.71 297.716C1452.09 298.797 1452.55 299.656 1454.11 300.854L1457.3 303.325C1460.96 306.139 1462.69 309.168 1460.56 312.853C1458.13 317.066 1453.19 317.615 1447.93 314.575C1443.71 312.143 1441.62 309.494 1441.19 304.924L1446.28 304.24ZM1485.84 336.465C1491.97 340.001 1497.23 338.239 1500.81 333.837L1496.37 330.459C1494.2 333.196 1491.36 333.886 1488.59 332.286C1485.54 330.526 1484.92 327.249 1487.14 323.397C1489.43 319.434 1492.72 318.341 1495.71 320.069C1498.24 321.525 1498.92 323.917 1498.09 327.093L1503.42 328.617C1504.92 323.833 1503.56 318.834 1498.18 315.73C1492.03 312.178 1485.57 314.026 1481.79 320.567C1478.43 326.386 1479.61 332.865 1485.84 336.465ZM1503.36 332.648C1499.76 338.884 1501.59 345.56 1507.8 349.144C1514.04 352.744 1520.71 350.98 1524.31 344.744C1527.91 338.509 1526.1 331.848 1519.87 328.248C1513.66 324.664 1506.96 326.413 1503.36 332.648ZM1510.3 344.821C1507.03 342.933 1506.47 339.358 1508.6 335.672C1510.72 331.986 1514.1 330.684 1517.37 332.572C1520.67 334.476 1521.23 338.05 1519.1 341.736C1516.97 345.422 1513.6 346.725 1510.3 344.821ZM1551.17 346.764L1546.43 344.028L1538.56 357.663L1538.63 355.043L1538.86 339.66L1532.9 336.22L1521.22 356.45L1525.94 359.17L1533.71 345.702L1533.65 348.107L1533.5 363.538L1539.49 366.994L1551.17 346.764ZM1573.22 359.498L1568.48 356.762L1560.61 370.397L1560.68 367.778L1560.92 352.394L1554.96 348.954L1543.28 369.185L1547.99 371.905L1555.77 358.436L1555.71 360.841L1555.56 376.273L1561.54 379.729L1573.22 359.498ZM1591.87 370.265L1577.02 361.689L1565.34 381.919L1580.66 390.767L1583.11 386.527L1572.88 380.623L1575.2 376.605L1582.99 381.101L1585.23 377.221L1577.44 372.725L1579.67 368.873L1589.42 374.505L1591.87 370.265ZM1591.58 397.512C1597.7 401.048 1602.97 399.285 1606.55 394.884L1602.1 391.506C1599.93 394.243 1597.09 394.933 1594.32 393.333C1591.27 391.573 1590.65 388.296 1592.88 384.444C1595.17 380.481 1598.46 379.388 1601.45 381.116C1603.97 382.572 1604.66 384.964 1603.82 388.14L1609.15 389.664C1610.66 384.88 1609.3 379.881 1603.92 376.777C1597.77 373.225 1591.3 375.073 1587.53 381.614C1584.17 387.433 1585.34 393.912 1591.58 397.512ZM1617.94 390.967L1608.71 406.957L1613.78 409.885L1623.01 393.895L1629.6 397.703L1632.05 393.463L1613.79 382.919L1611.34 387.159L1617.94 390.967ZM1634.87 409.795C1630.5 417.36 1633.83 421.904 1638.59 424.656C1643.41 427.44 1648.96 427.945 1653.3 420.435L1659.66 409.405L1654.57 406.461L1648.13 417.601C1646.23 420.899 1643.9 421.992 1641.18 420.424C1637.91 418.536 1638.23 415.688 1639.87 412.833L1646.31 401.693L1641.24 398.765L1634.87 409.795ZM1661.76 432.597C1659.26 431.157 1657.89 429.183 1657.59 426.24L1652.5 426.924C1652.93 431.494 1655.02 434.143 1659.24 436.575C1664.5 439.615 1669.44 439.066 1671.87 434.853C1674 431.168 1672.27 428.139 1668.61 425.325L1665.42 422.854C1663.86 421.656 1663.4 420.797 1664.02 419.716C1664.74 418.469 1666.64 418.382 1668.74 419.598C1670.66 420.702 1672.26 422.662 1672.73 425.371L1677.49 424.352C1676.97 420.321 1674.35 417.44 1671.11 415.568C1666.48 412.896 1661.29 413.043 1658.91 417.173C1656.85 420.748 1658.23 423.727 1661.34 426.15L1665.01 429.008C1666.8 430.449 1667.31 431.368 1666.68 432.449C1666.04 433.557 1664.53 434.197 1661.76 432.597ZM1712.12 455.837C1708.54 460.239 1703.28 462.001 1697.15 458.465C1690.92 454.865 1689.74 448.386 1693.1 442.567C1696.88 436.026 1703.34 434.178 1709.49 437.73C1714.87 440.834 1716.23 445.833 1714.73 450.617L1709.4 449.093C1710.23 445.917 1709.55 443.525 1707.02 442.069C1704.03 440.341 1700.74 441.434 1698.45 445.397C1696.23 449.249 1696.85 452.526 1699.9 454.286C1702.67 455.886 1705.51 455.196 1707.68 452.459L1712.12 455.837ZM1719.11 471.144C1712.9 467.56 1711.07 460.884 1714.67 454.648C1718.27 448.413 1724.97 446.664 1731.18 450.248C1737.41 453.848 1739.22 460.509 1735.62 466.744C1732.02 472.98 1725.35 474.744 1719.11 471.144ZM1719.91 457.672C1717.78 461.358 1718.34 464.933 1721.61 466.821C1724.91 468.725 1728.28 467.422 1730.41 463.736C1732.54 460.05 1731.98 456.476 1728.68 454.572C1725.41 452.684 1722.03 453.986 1719.91 457.672ZM1757.74 466.028L1762.48 468.764L1750.8 488.994L1744.81 485.538L1744.96 470.107L1745.02 467.702L1737.25 481.17L1732.53 478.45L1744.21 458.22L1750.17 461.66L1749.94 477.043L1749.87 479.663L1757.74 466.028ZM1779.8 478.762L1784.53 481.498L1772.85 501.729L1766.87 498.273L1767.02 482.841L1767.08 480.436L1759.3 493.905L1754.59 491.185L1766.27 470.954L1772.23 474.394L1771.99 489.778L1771.92 492.397L1779.8 478.762ZM1788.33 483.689L1803.18 492.265L1800.73 496.505L1790.98 490.873L1788.75 494.725L1796.54 499.221L1794.3 503.1L1786.51 498.605L1784.19 502.623L1794.42 508.527L1791.97 512.767L1776.65 503.919L1788.33 483.689ZM1817.86 516.884C1814.28 521.285 1809.01 523.048 1802.89 519.512C1796.65 515.912 1795.48 509.433 1798.84 503.614C1802.61 497.073 1809.08 495.225 1815.23 498.777C1820.61 501.881 1821.97 506.88 1820.46 511.664L1815.13 510.14C1815.97 506.964 1815.28 504.572 1812.76 503.116C1809.77 501.388 1806.48 502.481 1804.19 506.443C1801.96 510.296 1802.58 513.573 1805.63 515.333C1808.4 516.933 1811.24 516.243 1813.41 513.506L1817.86 516.884ZM1820.02 528.957L1829.25 512.967L1822.65 509.159L1825.1 504.919L1843.36 515.463L1840.91 519.703L1834.32 515.895L1825.09 531.885L1820.02 528.957ZM1849.9 546.656C1845.14 543.904 1841.81 539.36 1846.18 531.795L1852.55 520.765L1857.62 523.693L1851.19 534.833C1849.54 537.688 1849.22 540.536 1852.49 542.424C1855.21 543.992 1857.54 542.899 1859.44 539.601L1865.88 528.461L1870.97 531.405L1864.61 542.435C1860.27 549.945 1854.72 549.44 1849.9 546.656ZM1868.9 548.24C1869.2 551.183 1870.57 553.157 1873.07 554.597C1875.84 556.197 1877.35 555.557 1877.99 554.449C1878.62 553.368 1878.11 552.449 1876.32 551.008L1872.65 548.15C1869.54 545.727 1868.16 542.748 1870.22 539.173C1872.6 535.043 1877.79 534.896 1882.42 537.568C1885.66 539.44 1888.28 542.321 1888.8 546.352L1884.04 547.371C1883.57 544.662 1881.97 542.702 1880.05 541.598C1877.95 540.382 1876.05 540.469 1875.33 541.716C1874.71 542.796 1875.17 543.656 1876.73 544.854L1879.92 547.325C1883.58 550.139 1885.31 553.167 1883.18 556.853C1880.75 561.066 1875.81 561.615 1870.55 558.575C1866.33 556.143 1864.24 553.494 1863.81 548.924L1868.9 548.24Z" fill="#DDDDDD"/>
<path fill-rule="evenodd" clip-rule="evenodd" d="M1874.22 296.144L-3.5415 -207L-17.0001 -156.772L1860.76 346.372L1874.22 296.144ZM23.9161 -170.009C21.6012 -164.832 16.9699 -161.766 10.1389 -163.596C3.18424 -165.46 0.37357 -171.414 2.11283 -177.905C4.06743 -185.2 9.83085 -188.658 16.6928 -186.819C22.6893 -185.213 25.2997 -180.737 25.0834 -175.726L19.5428 -175.819C19.5282 -179.103 18.2445 -181.236 15.4317 -181.989C12.0934 -182.884 9.19708 -180.976 8.01273 -176.556C6.8615 -172.26 8.30906 -169.255 11.7091 -168.344C14.8001 -167.516 17.3619 -168.916 18.7509 -172.122L23.9161 -170.009ZM34.6321 -157.033C27.7084 -158.889 24.2072 -164.862 26.0707 -171.817C27.9342 -178.772 33.9532 -182.195 40.8769 -180.339C47.8316 -178.476 51.3019 -172.51 49.4384 -165.556C47.5749 -158.601 41.5868 -155.17 34.6321 -157.033ZM31.9126 -170.252C30.8111 -166.141 32.2768 -162.833 35.9241 -161.855C39.6024 -160.87 42.5258 -163.002 43.6273 -167.113C44.7289 -171.224 43.2631 -174.532 39.5849 -175.517C35.9376 -176.495 33.0141 -174.363 31.9126 -170.252ZM70.6186 -171.973L75.9041 -170.556L69.8581 -147.992L63.1816 -149.781L59.3346 -164.726L58.7685 -167.064L54.7433 -152.042L49.4887 -153.45L55.5347 -176.014L62.1803 -174.234L65.9346 -159.313L66.5437 -156.765L70.6186 -171.973ZM95.2195 -165.381L100.505 -163.964L94.459 -141.4L87.7826 -143.189L83.9355 -158.134L83.3694 -160.473L79.3442 -145.45L74.0896 -146.858L80.1356 -169.422L86.7812 -167.642L90.5355 -152.722L91.1447 -150.173L95.2195 -165.381ZM104.737 -162.831L121.304 -158.391L120.037 -153.662L109.157 -156.578L108.006 -152.281L116.691 -149.954L115.532 -145.626L106.846 -147.954L105.645 -143.472L117.051 -140.416L115.784 -135.687L98.6905 -140.267L104.737 -162.831ZM141.85 -138.409C139.535 -133.232 134.903 -130.166 128.072 -131.996C121.118 -133.86 118.307 -139.814 120.046 -146.305C122.001 -153.6 127.764 -157.058 134.626 -155.219C140.623 -153.613 143.233 -149.136 143.017 -144.126L137.476 -144.219C137.462 -147.502 136.178 -149.635 133.365 -150.389C130.027 -151.284 127.131 -149.376 125.946 -144.956C124.795 -140.66 126.243 -137.655 129.643 -136.744C132.734 -135.915 135.295 -137.316 136.684 -140.522L141.85 -138.409ZM147.061 -127.306L151.84 -145.141L144.484 -147.112L145.751 -151.841L166.12 -146.383L164.853 -141.654L157.496 -143.625L152.718 -125.79L147.061 -127.306ZM180.51 -117.946C175.193 -119.37 170.805 -122.898 173.066 -131.337L176.362 -143.639L182.019 -142.123L178.689 -129.697C177.836 -126.514 178.27 -123.681 181.917 -122.704C184.946 -121.892 186.915 -123.551 187.9 -127.229L191.23 -139.655L196.917 -138.131L193.621 -125.829C191.376 -117.452 185.888 -116.505 180.51 -117.946ZM199.273 -121.333C200.321 -118.567 202.158 -117.015 204.939 -116.27C208.03 -115.441 209.328 -116.452 209.659 -117.688C209.983 -118.894 209.258 -119.651 207.154 -120.579L202.869 -122.39C199.239 -123.926 197.131 -126.445 198.199 -130.433C199.434 -135.038 204.403 -136.523 209.565 -135.14C213.181 -134.17 216.46 -132.066 218.004 -128.306L213.666 -126.09C212.513 -128.585 210.458 -130.064 208.325 -130.635C205.976 -131.264 204.165 -130.689 203.793 -129.299C203.469 -128.093 204.141 -127.383 205.96 -126.631L209.683 -125.07C213.945 -123.298 216.395 -120.82 215.294 -116.709C214.035 -112.01 209.409 -110.202 203.537 -111.776C198.838 -113.035 196.132 -115.052 194.536 -119.356L199.273 -121.333ZM259.602 -106.857C257.287 -101.68 252.656 -98.6142 245.825 -100.445C238.87 -102.308 236.059 -108.262 237.799 -114.753C239.753 -122.048 245.517 -125.506 252.379 -123.668C258.375 -122.061 260.986 -117.585 260.769 -112.574L255.229 -112.667C255.214 -115.951 253.93 -118.084 251.118 -118.837C247.779 -119.732 244.883 -117.825 243.699 -113.404C242.547 -109.108 243.995 -106.103 247.395 -105.192C250.486 -104.364 253.048 -105.764 254.437 -108.97L259.602 -106.857ZM270.318 -93.8816C263.394 -95.7369 259.893 -101.711 261.757 -108.665C263.62 -115.62 269.639 -119.043 276.563 -117.187C283.517 -115.324 286.988 -109.359 285.124 -102.404C283.261 -95.4492 277.273 -92.0181 270.318 -93.8816ZM267.598 -107.1C266.497 -102.989 267.963 -99.6808 271.61 -98.7035C275.288 -97.718 278.212 -99.85 279.313 -103.961C280.415 -108.072 278.949 -111.38 275.271 -112.366C271.623 -113.343 268.7 -111.211 267.598 -107.1ZM306.304 -108.821L311.59 -107.404L305.544 -84.8404L298.867 -86.6294L295.02 -101.574L294.454 -103.912L290.429 -88.8904L285.175 -90.2984L291.221 -112.862L297.866 -111.082L301.62 -96.1617L302.23 -93.6132L306.304 -108.821ZM330.905 -102.229L336.191 -100.813L330.145 -78.2486L323.468 -80.0376L319.621 -94.9825L319.055 -97.3207L315.03 -82.2986L309.775 -83.7066L315.821 -106.271L322.467 -104.49L326.221 -89.5699L326.831 -87.0214L330.905 -102.229ZM340.422 -99.6788L356.99 -95.2395L355.723 -90.5104L344.843 -93.4257L343.691 -89.1293L352.377 -86.802L351.217 -82.4746L342.532 -84.8019L341.331 -80.32L352.737 -77.2639L351.469 -72.5347L334.376 -77.1148L340.422 -99.6788ZM377.535 -75.2571C375.221 -70.0798 370.589 -67.014 363.758 -68.8444C356.804 -70.7079 353.993 -76.6622 355.732 -83.1533C357.687 -90.4479 363.45 -93.9061 370.312 -92.0674C376.309 -90.4607 378.919 -85.9845 378.703 -80.9738L373.162 -81.067C373.147 -84.3506 371.864 -86.4836 369.051 -87.2372C365.713 -88.1317 362.816 -86.2244 361.632 -81.8043C360.481 -77.5079 361.928 -74.5028 365.328 -73.5918C368.419 -72.7635 370.981 -74.1642 372.37 -77.3699L377.535 -75.2571ZM382.747 -64.1539L387.526 -81.9888L380.169 -83.9599L381.437 -88.6891L401.806 -83.2311L400.539 -78.502L393.182 -80.4731L388.403 -62.6383L382.747 -64.1539ZM416.196 -54.7938C410.879 -56.2184 406.491 -59.7464 408.752 -68.1847L412.048 -80.4867L417.705 -78.9711L414.375 -66.5454C413.522 -63.3617 413.956 -60.529 417.603 -59.5517C420.632 -58.74 422.601 -60.3991 423.586 -64.0773L426.916 -76.503L432.603 -74.9791L429.307 -62.677C427.062 -54.3005 421.574 -53.3527 416.196 -54.7938ZM434.959 -58.181C436.007 -55.4156 437.843 -53.8633 440.625 -53.1179C443.716 -52.2896 445.014 -53.3002 445.345 -54.5366C445.668 -55.742 444.944 -56.4994 442.84 -57.4275L438.555 -59.2383C434.925 -60.7742 432.817 -63.2936 433.885 -67.2809C435.119 -71.8864 440.089 -73.3708 445.251 -71.9877C448.867 -71.0186 452.146 -68.9143 453.69 -65.1547L449.352 -62.9378C448.199 -65.4333 446.143 -66.9117 444.011 -67.4831C441.662 -68.1126 439.851 -67.5376 439.478 -66.1467C439.155 -64.9412 439.826 -64.2313 441.646 -63.4788L445.369 -61.9181C449.631 -60.1464 452.081 -57.6679 450.98 -53.5569C449.721 -48.8586 445.095 -47.0502 439.222 -48.6238C434.524 -49.8827 431.818 -51.8999 430.222 -56.2037L434.959 -58.181ZM481.511 -37.2927C488.342 -35.4624 492.973 -38.5282 495.288 -43.7055L490.123 -45.8183C488.734 -42.6126 486.172 -41.2119 483.081 -42.0401C479.681 -42.9511 478.233 -45.9562 479.384 -50.2526C480.569 -54.6727 483.465 -56.5801 486.803 -55.6856C489.616 -54.9319 490.9 -52.799 490.914 -49.5153L496.455 -49.4221C496.671 -54.4329 494.061 -58.909 488.065 -60.5158C481.203 -62.3544 475.439 -58.8963 473.485 -51.6016C471.745 -45.1106 474.556 -39.1562 481.511 -37.2927ZM497.442 -45.5134C495.579 -38.5587 499.08 -32.585 506.004 -30.7298C512.958 -28.8663 518.947 -32.2974 520.81 -39.2521C522.674 -46.2067 519.203 -52.1722 512.249 -54.0357C505.325 -55.8909 499.306 -52.4681 497.442 -45.5134ZM507.296 -35.5517C503.649 -36.529 502.183 -39.8371 503.284 -43.9481C504.386 -48.059 507.309 -50.1911 510.957 -49.2138C514.635 -48.2282 516.101 -44.9201 514.999 -40.8091C513.898 -36.6981 510.974 -34.5661 507.296 -35.5517ZM547.276 -44.2526L541.99 -45.6688L537.915 -30.4613L537.306 -33.0098L533.552 -47.9299L526.906 -49.7106L520.86 -27.1465L526.115 -25.7386L530.14 -40.7606L530.706 -38.4225L534.553 -23.4775L541.23 -21.6886L547.276 -44.2526ZM571.877 -37.6608L566.591 -39.077L562.516 -23.8695L561.907 -26.418L558.153 -41.3381L551.507 -43.1188L545.461 -20.5547L550.716 -19.1468L554.741 -34.1689L555.307 -31.8307L559.154 -16.8857L565.831 -15.0968L571.877 -37.6608ZM592.676 -32.0877L576.108 -36.527L570.062 -13.963L587.155 -9.3829L588.422 -14.1121L577.017 -17.1682L578.218 -21.6501L586.903 -19.3228L588.063 -23.6501L579.377 -25.9774L580.528 -30.2739L591.409 -27.3585L592.676 -32.0877ZM599.444 -5.69256C606.275 -3.86218 610.906 -6.92799 613.221 -12.1053L608.056 -14.2181C606.667 -11.0124 604.105 -9.61169 601.014 -10.4399C597.614 -11.351 596.167 -14.356 597.318 -18.6525C598.502 -23.0725 601.399 -24.9799 604.737 -24.0854C607.55 -23.3317 608.833 -21.1988 608.848 -17.9151L614.389 -17.8219C614.605 -22.8327 611.994 -27.3088 605.998 -28.9156C599.136 -30.7542 593.373 -27.2961 591.418 -20.0014C589.679 -13.5104 592.489 -7.55606 599.444 -5.69256ZM623.212 -18.8369L618.433 -1.00207L624.089 0.513567L628.868 -17.3213L636.225 -15.3501L637.492 -20.0793L617.122 -25.5373L615.855 -20.8081L623.212 -18.8369ZM644.438 -5.03286C642.177 3.40546 646.565 6.93348 651.882 8.35801C657.26 9.79913 662.748 8.85131 664.993 0.474797L668.289 -11.8272L662.602 -13.3512L659.272 -0.925491C658.287 2.75275 656.318 4.41181 653.289 3.60016C649.642 2.62286 649.208 -0.209901 650.061 -3.39359L653.39 -15.8193L647.734 -17.3349L644.438 -5.03286ZM676.311 10.034C673.529 9.28858 671.693 7.73629 670.645 4.97082L665.907 6.94813C667.504 11.252 670.21 13.2691 674.908 14.528C680.781 16.1016 685.407 14.2932 686.666 9.59494C687.767 5.48396 685.317 3.00541 681.054 1.23377L677.332 -0.326967C675.512 -1.07946 674.841 -1.78935 675.164 -2.99483C675.537 -4.38576 677.347 -4.96076 679.697 -4.33131C681.829 -3.75984 683.885 -2.28149 685.038 0.21407L689.376 -2.00281C687.832 -5.76241 684.553 -7.86682 680.937 -8.83582C675.775 -10.219 670.805 -8.73458 669.571 -4.12905C668.503 -0.141706 670.611 2.37766 674.241 3.91356L678.526 5.72439C680.63 6.65243 681.354 7.40979 681.031 8.61527C680.7 9.85165 679.402 10.8622 676.311 10.034ZM730.974 19.4464C728.659 24.6237 724.028 27.6895 717.196 25.8591C710.242 23.9956 707.431 18.0413 709.17 11.5502C711.125 4.25556 716.888 0.797413 723.75 2.63606C729.747 4.24281 732.357 8.71896 732.141 13.7297L726.6 13.6365C726.586 10.3529 725.302 8.21992 722.489 7.46624C719.151 6.57177 716.255 8.47912 715.07 12.8992C713.919 17.1956 715.367 20.2007 718.767 21.1117C721.858 21.94 724.419 20.5393 725.808 17.3336L730.974 19.4464ZM741.69 32.422C734.766 30.5668 731.265 24.5931 733.128 17.6384C734.992 10.6838 741.011 7.26097 747.934 9.11618C754.889 10.9797 758.359 16.9451 756.496 23.8998C754.632 30.8544 748.644 34.2855 741.69 32.422ZM738.97 19.2038C737.869 23.3148 739.334 26.6228 742.982 27.6001C746.66 28.5857 749.583 26.4537 750.685 22.3427C751.786 18.2317 750.321 14.9237 746.642 13.9381C742.995 12.9608 740.072 15.0928 738.97 19.2038ZM777.676 17.483L782.962 18.8992L776.916 41.4633L770.239 39.6743L766.392 24.7294L765.826 22.3912L761.801 37.4133L756.546 36.0053L762.592 13.4413L769.238 15.2219L772.992 30.142L773.601 32.6905L777.676 17.483ZM802.277 24.0748L807.563 25.491L801.517 48.0551L794.84 46.2661L790.993 31.3212L790.427 28.983L786.402 44.0051L781.147 42.5971L787.193 20.0331L793.839 21.8137L797.593 36.7338L798.202 39.2823L802.277 24.0748ZM811.794 26.6249L828.362 31.0641L827.094 35.7933L816.214 32.878L815.063 37.1744L823.749 39.5017L822.589 43.829L813.904 41.5017L812.703 45.9836L824.108 49.0398L822.841 53.7689L805.748 49.1889L811.794 26.6249ZM848.907 51.0466C846.592 56.2239 841.961 59.2897 835.13 57.4593C828.175 55.5958 825.365 49.6414 827.104 43.1504C829.058 35.8557 834.822 32.3976 841.684 34.2362C847.68 35.843 850.291 40.3191 850.075 45.3299L844.534 45.2367C844.519 41.953 843.235 39.8201 840.423 39.0664C837.084 38.172 834.188 40.0793 833.004 44.4994C831.853 48.7958 833.3 51.8009 836.7 52.7119C839.791 53.5401 842.353 52.1395 843.742 48.9337L848.907 51.0466ZM854.119 62.1498L858.898 44.3149L851.541 42.3437L852.808 37.6146L873.178 43.0726L871.911 47.8017L864.554 45.8306L859.775 63.6654L854.119 62.1498ZM887.567 71.5098C882.251 70.0853 877.863 66.5573 880.124 58.119L883.42 45.8169L889.076 47.3326L885.747 59.7582C884.894 62.9419 885.327 65.7747 888.975 66.752C892.004 67.5637 893.972 65.9046 894.958 62.2263L898.287 49.8007L903.975 51.3246L900.678 63.6266C898.434 72.0031 892.946 72.951 887.567 71.5098ZM906.33 68.1227C907.378 70.8881 909.215 72.4404 911.997 73.1858C915.088 74.014 916.386 73.0035 916.717 71.7671C917.04 70.5616 916.315 69.8043 914.212 68.8762L909.927 67.0654C906.296 65.5295 904.189 63.0101 905.257 59.0228C906.491 54.4173 911.461 52.9329 916.623 54.316C920.239 55.285 923.518 57.3894 925.062 61.149L920.724 63.3659C919.571 60.8704 917.515 59.392 915.382 58.8205C913.033 58.1911 911.223 58.7661 910.85 60.157C910.527 61.3625 911.198 62.0724 913.017 62.8249L916.74 64.3856C921.003 66.1572 923.453 68.6358 922.351 72.7468C921.093 77.445 916.467 79.2535 910.594 77.6798C905.896 76.4209 903.19 74.4038 901.593 70.1L906.33 68.1227ZM952.882 89.0109C959.713 90.8413 964.345 87.7755 966.66 82.5982L961.494 80.4854C960.105 83.6911 957.544 85.0918 954.453 84.2636C951.052 83.3525 949.605 80.3475 950.756 76.051C951.94 71.631 954.837 69.7236 958.175 70.6181C960.988 71.3718 962.272 73.5047 962.286 76.7884L967.827 76.8816C968.043 71.8708 965.433 67.3947 959.436 65.7879C952.574 63.9493 946.811 67.4074 944.856 74.7021C943.117 81.1931 945.928 87.1474 952.882 89.0109ZM968.814 80.7903C966.951 87.7449 970.452 93.7187 977.376 95.5739C984.33 97.4374 990.318 94.0063 992.182 87.0516C994.045 80.097 990.575 74.1315 983.62 72.268C976.697 70.4128 970.678 73.8356 968.814 80.7903ZM978.668 90.752C975.02 89.7747 973.554 86.4666 974.656 82.3556C975.758 78.2446 978.681 76.1126 982.328 77.0899C986.007 78.0755 987.472 81.3836 986.371 85.4946C985.269 89.6055 982.346 91.7376 978.668 90.752ZM1018.65 82.0511L1013.36 80.6348L1009.29 95.8424L1008.68 93.2939L1004.92 78.3738L998.278 76.5931L992.232 99.1571L997.487 100.565L1001.51 85.543L1002.08 87.8812L1005.93 102.826L1012.6 104.615L1018.65 82.0511ZM1043.25 88.6429L1037.96 87.2266L1033.89 102.434L1033.28 99.8857L1029.52 84.9656L1022.88 83.1849L1016.83 105.749L1022.09 107.157L1026.11 92.1348L1026.68 94.473L1030.53 109.418L1037.2 111.207L1043.25 88.6429ZM1064.05 94.216L1047.48 89.7767L1041.43 112.341L1058.53 116.921L1059.79 112.192L1048.39 109.135L1049.59 104.654L1058.27 106.981L1059.43 102.654L1050.75 100.326L1051.9 96.0298L1062.78 98.9451L1064.05 94.216ZM1070.82 120.611C1077.65 122.441 1082.28 119.376 1084.59 114.198L1079.43 112.086C1078.04 115.291 1075.48 116.692 1072.39 115.864C1068.99 114.953 1067.54 111.948 1068.69 107.651C1069.87 103.231 1072.77 101.324 1076.11 102.218C1078.92 102.972 1080.21 105.105 1080.22 108.389L1085.76 108.482C1085.98 103.471 1083.37 98.9948 1077.37 97.3881C1070.51 95.5494 1064.74 99.0076 1062.79 106.302C1061.05 112.793 1063.86 118.748 1070.82 120.611ZM1094.58 107.467L1089.8 125.302L1095.46 126.817L1100.24 108.982L1107.6 110.954L1108.86 106.224L1088.49 100.766L1087.23 105.496L1094.58 107.467ZM1115.81 121.271C1113.55 129.709 1117.94 133.237 1123.25 134.662C1128.63 136.103 1134.12 135.155 1136.36 126.778L1139.66 114.476L1133.97 112.953L1130.64 125.378C1129.66 129.056 1127.69 130.715 1124.66 129.904C1121.01 128.927 1120.58 126.094 1121.43 122.91L1124.76 110.484L1119.11 108.969L1115.81 121.271ZM1147.68 136.338C1144.9 135.592 1143.06 134.04 1142.02 131.274L1137.28 133.252C1138.88 137.556 1141.58 139.573 1146.28 140.832C1152.15 142.405 1156.78 140.597 1158.04 135.899C1159.14 131.788 1156.69 129.309 1152.43 127.537L1148.7 125.977C1146.88 125.224 1146.21 124.514 1146.54 123.309C1146.91 121.918 1148.72 121.343 1151.07 121.972C1153.2 122.544 1155.26 124.022 1156.41 126.518L1160.75 124.301C1159.2 120.541 1155.92 118.437 1152.31 117.468C1147.15 116.085 1142.18 117.569 1140.94 122.175C1139.87 126.162 1141.98 128.681 1145.61 130.217L1149.9 132.028C1152 132.956 1152.73 133.713 1152.4 134.919C1152.07 136.155 1150.77 137.166 1147.68 136.338ZM1202.35 145.75C1200.03 150.927 1195.4 153.993 1188.57 152.163C1181.61 150.299 1178.8 144.345 1180.54 137.854C1182.5 130.559 1188.26 127.101 1195.12 128.94C1201.12 130.546 1203.73 135.023 1203.51 140.033L1197.97 139.94C1197.96 136.657 1196.67 134.524 1193.86 133.77C1190.52 132.875 1187.63 134.783 1186.44 139.203C1185.29 143.499 1186.74 146.504 1190.14 147.415C1193.23 148.244 1195.79 146.843 1197.18 143.637L1202.35 145.75ZM1213.06 158.726C1206.14 156.871 1202.64 150.897 1204.5 143.942C1206.36 136.987 1212.38 133.565 1219.31 135.42C1226.26 137.283 1229.73 143.249 1227.87 150.203C1226 157.158 1220.02 160.589 1213.06 158.726ZM1210.34 145.507C1209.24 149.618 1210.71 152.927 1214.35 153.904C1218.03 154.889 1220.96 152.757 1222.06 148.646C1223.16 144.535 1221.69 141.227 1218.01 140.242C1214.37 139.264 1211.44 141.396 1210.34 145.507ZM1249.05 143.787L1254.33 145.203L1248.29 167.767L1241.61 165.978L1237.76 151.033L1237.2 148.695L1233.17 163.717L1227.92 162.309L1233.96 139.745L1240.61 141.526L1244.36 156.446L1244.97 158.994L1249.05 143.787ZM1273.65 150.378L1278.93 151.795L1272.89 174.359L1266.21 172.57L1262.36 157.625L1261.8 155.287L1257.77 170.309L1252.52 168.901L1258.56 146.337L1265.21 148.117L1268.96 163.037L1269.57 165.586L1273.65 150.378ZM1283.17 152.929L1299.73 157.368L1298.47 162.097L1287.59 159.182L1286.43 163.478L1295.12 165.805L1293.96 170.133L1285.28 167.805L1284.07 172.287L1295.48 175.343L1294.21 180.073L1277.12 175.493L1283.17 152.929ZM1320.28 177.35C1317.96 182.528 1313.33 185.593 1306.5 183.763C1299.55 181.899 1296.74 175.945 1298.48 169.454C1300.43 162.159 1306.19 158.701 1313.06 160.54C1319.05 162.147 1321.66 166.623 1321.45 171.634L1315.91 171.54C1315.89 168.257 1314.61 166.124 1311.79 165.37C1308.46 164.476 1305.56 166.383 1304.38 170.803C1303.22 175.099 1304.67 178.105 1308.07 179.016C1311.16 179.844 1313.72 178.443 1315.11 175.237L1320.28 177.35ZM1325.49 188.453L1330.27 170.619L1322.91 168.647L1324.18 163.918L1344.55 169.376L1343.28 174.105L1335.93 172.134L1331.15 189.969L1325.49 188.453ZM1358.94 197.814C1353.62 196.389 1349.23 192.861 1351.5 184.423L1354.79 172.121L1360.45 173.636L1357.12 186.062C1356.27 189.246 1356.7 192.078 1360.35 193.056C1363.38 193.867 1365.34 192.208 1366.33 188.53L1369.66 176.104L1375.35 177.628L1372.05 189.93C1369.81 198.307 1364.32 199.255 1358.94 197.814ZM1377.7 194.426C1378.75 197.192 1380.59 198.744 1383.37 199.49C1386.46 200.318 1387.76 199.307 1388.09 198.071C1388.41 196.865 1387.69 196.108 1385.58 195.18L1381.3 193.369C1377.67 191.833 1375.56 189.314 1376.63 185.326C1377.86 180.721 1382.83 179.237 1387.99 180.62C1391.61 181.589 1394.89 183.693 1396.43 187.453L1392.1 189.67C1390.94 187.174 1388.89 185.696 1386.75 185.124C1384.41 184.495 1382.59 185.07 1382.22 186.461C1381.9 187.666 1382.57 188.376 1384.39 189.129L1388.11 190.689C1392.37 192.461 1394.82 194.939 1393.72 199.05C1392.46 203.749 1387.84 205.557 1381.97 203.984C1377.27 202.725 1374.56 200.707 1372.96 196.404L1377.7 194.426ZM1424.25 215.315C1431.09 217.145 1435.72 214.079 1438.03 208.902L1432.87 206.789C1431.48 209.995 1428.92 211.395 1425.82 210.567C1422.42 209.656 1420.98 206.651 1422.13 202.355C1423.31 197.935 1426.21 196.027 1429.55 196.922C1432.36 197.675 1433.64 199.808 1433.66 203.092L1439.2 203.185C1439.41 198.174 1436.8 193.698 1430.81 192.092C1423.95 190.253 1418.18 193.711 1416.23 201.006C1414.49 207.497 1417.3 213.451 1424.25 215.315ZM1440.19 207.094C1438.32 214.049 1441.82 220.022 1448.75 221.878C1455.7 223.741 1461.69 220.31 1463.55 213.355C1465.42 206.401 1461.95 200.435 1454.99 198.572C1448.07 196.716 1442.05 200.139 1440.19 207.094ZM1450.04 217.056C1446.39 216.078 1444.93 212.77 1446.03 208.659C1447.13 204.548 1450.05 202.416 1453.7 203.394C1457.38 204.379 1458.84 207.687 1457.74 211.798C1456.64 215.909 1453.72 218.041 1450.04 217.056ZM1490.02 208.355L1484.73 206.939L1480.66 222.146L1480.05 219.598L1476.3 204.677L1469.65 202.897L1463.6 225.461L1468.86 226.869L1472.88 211.847L1473.45 214.185L1477.3 229.13L1483.97 230.919L1490.02 208.355ZM1514.62 214.947L1509.33 213.53L1505.26 228.738L1504.65 226.189L1500.9 211.269L1494.25 209.489L1488.2 232.053L1493.46 233.461L1497.48 218.439L1498.05 220.777L1501.9 235.722L1508.57 237.511L1514.62 214.947ZM1535.42 220.52L1518.85 216.08L1512.81 238.644L1529.9 243.224L1531.17 238.495L1519.76 235.439L1520.96 230.957L1529.65 233.285L1530.81 228.957L1522.12 226.63L1523.27 222.333L1534.15 225.249L1535.42 220.52ZM1542.19 246.915C1549.02 248.745 1553.65 245.679 1555.96 240.502L1550.8 238.389C1549.41 241.595 1546.85 242.996 1543.76 242.167C1540.36 241.256 1538.91 238.251 1540.06 233.955C1541.25 229.535 1544.14 227.627 1547.48 228.522C1550.29 229.276 1551.58 231.409 1551.59 234.692L1557.13 234.785C1557.35 229.775 1554.74 225.299 1548.74 223.692C1541.88 221.853 1536.12 225.311 1534.16 232.606C1532.42 239.097 1535.23 245.051 1542.19 246.915ZM1565.96 233.77L1561.18 251.605L1566.83 253.121L1571.61 235.286L1578.97 237.257L1580.24 232.528L1559.87 227.07L1558.6 231.799L1565.96 233.77ZM1587.18 247.574C1584.92 256.013 1589.31 259.541 1594.63 260.965C1600 262.406 1605.49 261.459 1607.74 253.082L1611.03 240.78L1605.34 239.256L1602.02 251.682C1601.03 255.36 1599.06 257.019 1596.03 256.208C1592.38 255.23 1591.95 252.397 1592.8 249.214L1596.13 236.788L1590.48 235.272L1587.18 247.574ZM1619.05 262.641C1616.27 261.896 1614.44 260.344 1613.39 257.578L1608.65 259.555C1610.25 263.859 1612.95 265.876 1617.65 267.135C1623.52 268.709 1628.15 266.901 1629.41 262.202C1630.51 258.091 1628.06 255.613 1623.8 253.841L1620.07 252.28C1618.26 251.528 1617.58 250.818 1617.91 249.613C1618.28 248.222 1620.09 247.647 1622.44 248.276C1624.57 248.848 1626.63 250.326 1627.78 252.821L1632.12 250.605C1630.58 246.845 1627.3 244.741 1623.68 243.772C1618.52 242.388 1613.55 243.873 1612.31 248.478C1611.25 252.466 1613.35 254.985 1616.98 256.521L1621.27 258.332C1623.37 259.26 1624.1 260.017 1623.77 261.223C1623.44 262.459 1622.15 263.47 1619.05 262.641ZM1673.72 272.054C1671.4 277.231 1666.77 280.297 1659.94 278.466C1652.99 276.603 1650.17 270.649 1651.91 264.158C1653.87 256.863 1659.63 253.405 1666.49 255.243C1672.49 256.85 1675.1 261.326 1674.88 266.337L1669.34 266.244C1669.33 262.96 1668.05 260.827 1665.23 260.074C1661.89 259.179 1659 261.086 1657.81 265.507C1656.66 269.803 1658.11 272.808 1661.51 273.719C1664.6 274.547 1667.16 273.147 1668.55 269.941L1673.72 272.054ZM1684.43 285.029C1677.51 283.174 1674.01 277.2 1675.87 270.246C1677.74 263.291 1683.75 259.868 1690.68 261.724C1697.63 263.587 1701.1 269.552 1699.24 276.507C1697.38 283.462 1691.39 286.893 1684.43 285.029ZM1681.71 271.811C1680.61 275.922 1682.08 279.23 1685.73 280.207C1689.4 281.193 1692.33 279.061 1693.43 274.95C1694.53 270.839 1693.06 267.531 1689.39 266.545C1685.74 265.568 1682.82 267.7 1681.71 271.811ZM1720.42 270.09L1725.71 271.507L1719.66 294.071L1712.98 292.282L1709.14 277.337L1708.57 274.999L1704.54 290.021L1699.29 288.613L1705.34 266.049L1711.98 267.829L1715.74 282.749L1716.34 285.298L1720.42 270.09ZM1745.02 276.682L1750.31 278.098L1744.26 300.662L1737.58 298.873L1733.74 283.929L1733.17 281.59L1729.15 296.612L1723.89 295.204L1729.94 272.64L1736.58 274.421L1740.34 289.341L1740.95 291.89L1745.02 276.682ZM1754.54 279.232L1771.11 283.671L1769.84 288.401L1758.96 285.485L1757.81 289.782L1766.49 292.109L1765.33 296.436L1756.65 294.109L1755.45 298.591L1766.85 301.647L1765.58 306.376L1748.49 301.796L1754.54 279.232ZM1791.65 303.654C1789.34 308.831 1784.7 311.897 1777.87 310.067C1770.92 308.203 1768.11 302.249 1769.85 295.758C1771.8 288.463 1777.57 285.005 1784.43 286.844C1790.42 288.45 1793.03 292.926 1792.82 297.937L1787.28 297.844C1787.26 294.56 1785.98 292.427 1783.17 291.674C1779.83 290.779 1776.93 292.687 1775.75 297.107C1774.6 301.403 1776.04 304.408 1779.44 305.319C1782.53 306.147 1785.1 304.747 1786.49 301.541L1791.65 303.654ZM1796.86 314.757L1801.64 296.922L1794.28 294.951L1795.55 290.222L1815.92 295.68L1814.65 300.409L1807.3 298.438L1802.52 316.273L1796.86 314.757ZM1830.31 324.117C1824.99 322.693 1820.61 319.165 1822.87 310.726L1826.16 298.424L1831.82 299.94L1828.49 312.366C1827.64 315.549 1828.07 318.382 1831.72 319.359C1834.75 320.171 1836.72 318.512 1837.7 314.834L1841.03 302.408L1846.72 303.932L1843.42 316.234C1841.18 324.611 1835.69 325.558 1830.31 324.117ZM1849.07 320.73C1850.12 323.495 1851.96 325.048 1854.74 325.793C1857.83 326.621 1859.13 325.611 1859.46 324.374C1859.78 323.169 1859.06 322.412 1856.96 321.484L1852.67 319.673C1849.04 318.137 1846.93 315.617 1848 311.63C1849.23 307.025 1854.2 305.54 1859.37 306.923C1862.98 307.892 1866.26 309.997 1867.8 313.756L1863.47 315.973C1862.31 313.478 1860.26 311.999 1858.13 311.428C1855.78 310.798 1853.97 311.373 1853.59 312.764C1853.27 313.97 1853.94 314.68 1855.76 315.432L1859.48 316.993C1863.75 318.765 1866.2 321.243 1865.09 325.354C1863.84 330.052 1859.21 331.861 1853.34 330.287C1848.64 329.028 1845.93 327.011 1844.34 322.707L1849.07 320.73Z" fill="url(#paint0_linear_1_119)"/>
<defs>
<linearGradient id="paint0_linear_1_119" x1="-10.6251" y1="-180.564" x2="1867.13" y2="322.58" gradientUnits="userSpaceOnUse">
<stop stop-color="#6CAFFF"/>
<stop offset="0.276042" stop-color="#FF7BAD"/>
<stop offset="0.635417" stop-color="#FFC940"/>
<stop offset="1" stop-color="#FFC940"/>
</linearGradient>
</defs>
</svg>
